<?xml version="1.0" encoding="UTF-8" standalone="no"?>
<!-- Created with Inkscape (http://www.inkscape.org/) -->

<svg
   xmlns:dc="http://purl.org/dc/elements/1.1/"
   xmlns:cc="http://creativecommons.org/ns#"
   xmlns:rdf="http://www.w3.org/1999/02/22-rdf-syntax-ns#"
   xmlns:svg="http://www.w3.org/2000/svg"
   xmlns="http://www.w3.org/2000/svg"
   xmlns:sodipodi="http://sodipodi.sourceforge.net/DTD/sodipodi-0.dtd"
   xmlns:inkscape="http://www.inkscape.org/namespaces/inkscape"
   version="1.1"
   id="svg2"
   xml:space="preserve"
   width="557.33331"
   height="416"
   viewBox="0 0 557.33331 416"
   sodipodi:docname="title-len.svg"
   inkscape:version="0.92.4 5da689c313, 2019-01-14"><metadata
     id="metadata8"><rdf:RDF><cc:Work
         rdf:about=""><dc:format>image/svg+xml</dc:format><dc:type
           rdf:resource="http://purl.org/dc/dcmitype/StillImage" /><dc:title /></cc:Work></rdf:RDF></metadata><defs
     id="defs6" /><sodipodi:namedview
     pagecolor="#ffffff"
     bordercolor="#666666"
     borderopacity="1"
     objecttolerance="10"
     gridtolerance="10"
     guidetolerance="10"
     inkscape:pageopacity="0"
     inkscape:pageshadow="2"
     inkscape:window-width="947"
     inkscape:window-height="1010"
     id="namedview4"
     showgrid="false"
     inkscape:zoom="6.4183538"
     inkscape:cx="30.956749"
     inkscape:cy="210.32241"
     inkscape:window-x="2885"
     inkscape:window-y="34"
     inkscape:window-maximized="0"
     inkscape:current-layer="g12" /><g
     id="g10"
     inkscape:groupmode="layer"
     inkscape:label="ink_ext_XXXXXX"
     transform="matrix(1.3333333,0,0,-1.3333333,0,416)"><g
       id="g12"
       transform="scale(0.1)"><path
         d="M 0,9.01953 H 4177.5 V 3121.5195 H 0 Z"
         style="fill:#ffffff;fill-opacity:1;fill-rule:nonzero;stroke:none"
         id="path14"
         inkscape:connector-curvature="0" /><path
         d="M 0,9.01953 H 4177.5 V 3121.5195 H 0 Z"
         style="fill:#ffffff;fill-opacity:1;fill-rule:nonzero;stroke:none"
         id="path16"
         inkscape:connector-curvature="0" /><g
         id="g18"
         transform="scale(10)"><text
   transform="matrix(1,0,0,-1,166.93,2.32422)"
   style="font-variant:normal;font-weight:normal;font-size:14px;font-family:SimSun;-inkscape-font-specification:SimSun;writing-mode:lr-tb;fill:#000000;fill-opacity:1;fill-rule:nonzero;stroke:none"
   id="text22"><tspan
     x="0 14 28 42 56 70"
     y="0"
     sodipodi:role="line"
     id="tspan20"
     style="-inkscape-font-specification:'思源黑体';font-family:'思源黑体';font-weight:normal;font-style:normal;font-stretch:normal;font-variant:normal">最大路径长度</tspan></text>


</g><path
         d="m 540,399.02 h 3240 v 2490 H 540 Z"
         style="fill:#ffffff;fill-opacity:1;fill-rule:nonzero;stroke:none"
         id="path24"
         inkscape:connector-curvature="0" /><path
         d="M 540,399.02 H 3780"
         style="fill:none;stroke:#232323;stroke-width:7.5;stroke-linecap:square;stroke-linejoin:miter;stroke-miterlimit:10;stroke-dasharray:none;stroke-opacity:1"
         id="path26"
         inkscape:connector-curvature="0" /><path
         d="M 540,2889.02 H 3780"
         style="fill:none;stroke:#232323;stroke-width:7.5;stroke-linecap:square;stroke-linejoin:miter;stroke-miterlimit:10;stroke-dasharray:none;stroke-opacity:1"
         id="path28"
         inkscape:connector-curvature="0" /><path
         d="m 540,399.02 v 32.39"
         style="fill:none;stroke:#232323;stroke-width:7.5;stroke-linecap:square;stroke-linejoin:miter;stroke-miterlimit:10;stroke-dasharray:none;stroke-opacity:1"
         id="path30"
         inkscape:connector-curvature="0" /><path
         d="m 540,2889.02 v -32.38"
         style="fill:none;stroke:#232323;stroke-width:7.5;stroke-linecap:square;stroke-linejoin:miter;stroke-miterlimit:10;stroke-dasharray:none;stroke-opacity:1"
         id="path32"
         inkscape:connector-curvature="0" /><path
         d="m 1350,399.02 v 32.39"
         style="fill:none;stroke:#232323;stroke-width:7.5;stroke-linecap:square;stroke-linejoin:miter;stroke-miterlimit:10;stroke-dasharray:none;stroke-opacity:1"
         id="path34"
         inkscape:connector-curvature="0" /><path
         d="m 1350,2889.02 v -32.38"
         style="fill:none;stroke:#232323;stroke-width:7.5;stroke-linecap:square;stroke-linejoin:miter;stroke-miterlimit:10;stroke-dasharray:none;stroke-opacity:1"
         id="path36"
         inkscape:connector-curvature="0" /><path
         d="m 2160,399.02 v 32.39"
         style="fill:none;stroke:#232323;stroke-width:7.5;stroke-linecap:square;stroke-linejoin:miter;stroke-miterlimit:10;stroke-dasharray:none;stroke-opacity:1"
         id="path38"
         inkscape:connector-curvature="0" /><path
         d="m 2160,2889.02 v -32.38"
         style="fill:none;stroke:#232323;stroke-width:7.5;stroke-linecap:square;stroke-linejoin:miter;stroke-miterlimit:10;stroke-dasharray:none;stroke-opacity:1"
         id="path40"
         inkscape:connector-curvature="0" /><path
         d="m 2970,399.02 v 32.39"
         style="fill:none;stroke:#232323;stroke-width:7.5;stroke-linecap:square;stroke-linejoin:miter;stroke-miterlimit:10;stroke-dasharray:none;stroke-opacity:1"
         id="path42"
         inkscape:connector-curvature="0" /><path
         d="m 2970,2889.02 v -32.38"
         style="fill:none;stroke:#232323;stroke-width:7.5;stroke-linecap:square;stroke-linejoin:miter;stroke-miterlimit:10;stroke-dasharray:none;stroke-opacity:1"
         id="path44"
         inkscape:connector-curvature="0" /><path
         d="m 3780,399.02 v 32.39"
         style="fill:none;stroke:#232323;stroke-width:7.5;stroke-linecap:square;stroke-linejoin:miter;stroke-miterlimit:10;stroke-dasharray:none;stroke-opacity:1"
         id="path46"
         inkscape:connector-curvature="0" /><path
         d="m 3780,2889.02 v -32.38"
         style="fill:none;stroke:#232323;stroke-width:7.5;stroke-linecap:square;stroke-linejoin:miter;stroke-miterlimit:10;stroke-dasharray:none;stroke-opacity:1"
         id="path48"
         inkscape:connector-curvature="0" /><path
         d="m 581.641,297.93 c 0,-8.239 -2.153,-15.078 -6.411,-20.469 -4.289,-5.313 -12.261,-11.211 -23.902,-17.66 -12.738,-6.992 -21.406,-13.352 -26.098,-19.063 -1.871,-2.5 -3.429,-5.308 -4.679,-8.437 h 61.09 v -13.75 h -77.032 c 0,11.879 2.891,21.57 8.75,29.07 5.942,7.5 16.95,15.699 33.121,24.68 7.899,4.379 13.29,8.359 16.098,12.039 2.891,3.629 4.371,8.32 4.371,14.058 0,5.942 -2.148,10.782 -6.398,14.532 -4.301,3.832 -9.77,5.781 -16.41,5.781 -6.993,0 -12.5,-2.422 -16.563,-7.191 -3.988,-4.68 -6.058,-11.399 -6.25,-20.149 h -13.75 c -0.238,12.379 3.043,22.07 9.844,29.059 6.879,7.07 16.406,10.621 28.598,10.621 10.39,0 18.941,-3.082 25.621,-9.211 6.64,-6.18 10,-14.141 10,-23.91 z"
         style="fill:#232323;fill-opacity:1;fill-rule:nonzero;stroke:none"
         id="path50"
         inkscape:connector-curvature="0" /><path
         d="m 1375.31,300.59 c 0,5.308 -2.03,9.609 -6.09,12.961 -3.99,3.328 -9.14,5 -15.47,5 -6.68,0 -11.8,-2.031 -15.31,-6.09 -3.56,-4.063 -5.47,-10.16 -5.78,-18.281 h -13.75 c 0,11.761 3.04,20.82 9.21,27.191 6.26,6.438 15,9.68 26.26,9.68 10.7,0 19.29,-2.653 25.78,-7.961 6.56,-5.32 9.84,-12.352 9.84,-21.102 0,-8.75 -3.28,-15.777 -9.84,-21.09 -1.25,-1.058 -2.62,-1.988 -4.07,-2.808 2.7,-1.25 5.08,-2.738 7.19,-4.379 7.07,-5.551 10.63,-12.973 10.63,-22.34 0,-10.551 -3.68,-19.18 -10.94,-25.941 -7.31,-6.68 -16.68,-10 -28.13,-10 -12.61,0 -22.14,3.05 -28.59,9.058 -6.37,6.133 -9.84,15.473 -10.47,27.973 h 14.84 c 0.83,-8.75 3.13,-15 6.88,-18.75 3.83,-3.75 9.77,-5.621 17.81,-5.621 6.88,0 12.5,1.949 16.88,5.93 4.45,3.949 6.72,9.07 6.72,15.32 0,6.558 -2.15,11.75 -6.41,15.621 -3.67,3.32 -8.36,5.199 -14.06,5.629 -2.62,0.191 -5.12,0.308 -7.5,0.308 -2.42,0 -3.99,-0.117 -4.69,-0.308 v 12.34 c 1.13,-0.309 2.89,-0.469 5.31,-0.469 2.39,0 4.73,0.16 7.03,0.469 4.57,0.621 8.29,2.109 11.1,4.531 3.75,3.129 5.62,7.5 5.62,13.129 z"
         style="fill:#232323;fill-opacity:1;fill-rule:nonzero;stroke:none"
         id="path52"
         inkscape:connector-curvature="0" /><path
         d="m 2173.98,245.59 h -49.53 v 13.121 l 52.03,72.34 h 11.72 v -73.43 h 15.94 V 245.59 h -15.94 v -27.039 h -14.22 z m 0,12.031 v 51.25 l -35.78,-50.16 -0.78,-1.09 z"
         style="fill:#232323;fill-opacity:1;fill-rule:nonzero;stroke:none"
         id="path54"
         inkscape:connector-curvature="0" /><path
         d="m 3012.58,254.801 c 0,-11.563 -3.67,-21.051 -10.94,-28.43 -7.19,-7.312 -16.41,-10.941 -27.66,-10.941 -11.25,0 -20.31,2.808 -27.18,8.441 -6.8,5.699 -10.59,13.508 -11.41,23.43 h 14.69 c 0.7,-6.25 3.2,-11.09 7.5,-14.531 4.26,-3.43 9.92,-5.149 17.03,-5.149 6.76,0 12.27,2.34 16.56,7.027 4.26,4.762 6.41,10.942 6.41,18.442 0,7.808 -2.27,13.98 -6.72,18.59 -4.49,4.57 -10.55,6.871 -18.13,6.871 -4.18,0 -8.2,-1.012 -12.03,-2.961 -3.86,-2 -6.79,-4.5 -8.75,-7.5 l -11.87,0.781 8.12,60 h 58.28 v -13.75 h -47.81 l -4.84,-30.781 0.47,0.308 c 6.25,4.262 12.81,6.403 19.68,6.403 11.76,0 21.14,-3.281 28.13,-9.84 6.95,-6.481 10.47,-15.27 10.47,-26.41 z"
         style="fill:#232323;fill-opacity:1;fill-rule:nonzero;stroke:none"
         id="path56"
         inkscape:connector-curvature="0" /><path
         d="m 3787.81,331.051 c 9.89,0 17.74,-2.653 23.6,-7.961 5.82,-5.32 8.94,-12.66 9.37,-22.039 h -13.9 c -0.55,5.508 -2.47,9.769 -5.79,12.82 -3.36,3.008 -7.77,4.527 -13.28,4.527 -8.75,0 -15.47,-4.179 -20.15,-12.5 -4.07,-7.109 -6.33,-16.796 -6.72,-29.058 6.95,8.82 15.86,13.281 26.72,13.281 10.62,0 19.14,-3.441 25.62,-10.32 6.56,-6.789 9.84,-15.781 9.84,-27.031 0,-11.168 -3.55,-20.149 -10.62,-27.032 -7.11,-6.867 -16.37,-10.308 -27.81,-10.308 -12.31,0 -21.8,4.73 -28.44,14.218 -6.68,9.571 -10,23.161 -10,40.782 0,19.371 3.63,34.3 10.94,44.84 7.19,10.511 17.38,15.781 30.62,15.781 z m -25.15,-78.281 c 0,-7.18 2.11,-13.079 6.4,-17.649 4.26,-4.609 9.73,-6.883 16.41,-6.883 6.64,0 12.07,2.274 16.25,6.883 4.26,4.57 6.4,10.469 6.4,17.649 0,7.269 -2.14,13.21 -6.4,17.82 -4.18,4.57 -9.61,6.871 -16.25,6.871 -6.68,0 -12.15,-2.301 -16.41,-6.871 -4.29,-4.61 -6.4,-10.551 -6.4,-17.82 z"
         style="fill:#232323;fill-opacity:1;fill-rule:nonzero;stroke:none"
         id="path58"
         inkscape:connector-curvature="0" /><path
         d="m 540,399.02 v 2490"
         style="fill:none;stroke:#232323;stroke-width:7.5;stroke-linecap:square;stroke-linejoin:miter;stroke-miterlimit:10;stroke-dasharray:none;stroke-opacity:1"
         id="path60"
         inkscape:connector-curvature="0" /><path
         d="m 3780,399.02 v 2490"
         style="fill:none;stroke:#232323;stroke-width:7.5;stroke-linecap:square;stroke-linejoin:miter;stroke-miterlimit:10;stroke-dasharray:none;stroke-opacity:1"
         id="path62"
         inkscape:connector-curvature="0" /><path
         d="m 540,399.02 h 32.379"
         style="fill:none;stroke:#232323;stroke-width:7.5;stroke-linecap:square;stroke-linejoin:miter;stroke-miterlimit:10;stroke-dasharray:none;stroke-opacity:1"
         id="path64"
         inkscape:connector-curvature="0" /><path
         d="m 3780,399.02 h -32.38"
         style="fill:none;stroke:#232323;stroke-width:7.5;stroke-linecap:square;stroke-linejoin:miter;stroke-miterlimit:10;stroke-dasharray:none;stroke-opacity:1"
         id="path66"
         inkscape:connector-curvature="0" /><path
         d="m 540,710.27 h 32.379"
         style="fill:none;stroke:#232323;stroke-width:7.5;stroke-linecap:square;stroke-linejoin:miter;stroke-miterlimit:10;stroke-dasharray:none;stroke-opacity:1"
         id="path68"
         inkscape:connector-curvature="0" /><path
         d="m 3780,710.27 h -32.38"
         style="fill:none;stroke:#232323;stroke-width:7.5;stroke-linecap:square;stroke-linejoin:miter;stroke-miterlimit:10;stroke-dasharray:none;stroke-opacity:1"
         id="path70"
         inkscape:connector-curvature="0" /><path
         d="m 540,1021.52 h 32.379"
         style="fill:none;stroke:#232323;stroke-width:7.5;stroke-linecap:square;stroke-linejoin:miter;stroke-miterlimit:10;stroke-dasharray:none;stroke-opacity:1"
         id="path72"
         inkscape:connector-curvature="0" /><path
         d="m 3780,1021.52 h -32.38"
         style="fill:none;stroke:#232323;stroke-width:7.5;stroke-linecap:square;stroke-linejoin:miter;stroke-miterlimit:10;stroke-dasharray:none;stroke-opacity:1"
         id="path74"
         inkscape:connector-curvature="0" /><path
         d="m 540,1332.77 h 32.379"
         style="fill:none;stroke:#232323;stroke-width:7.5;stroke-linecap:square;stroke-linejoin:miter;stroke-miterlimit:10;stroke-dasharray:none;stroke-opacity:1"
         id="path76"
         inkscape:connector-curvature="0" /><path
         d="m 3780,1332.77 h -32.38"
         style="fill:none;stroke:#232323;stroke-width:7.5;stroke-linecap:square;stroke-linejoin:miter;stroke-miterlimit:10;stroke-dasharray:none;stroke-opacity:1"
         id="path78"
         inkscape:connector-curvature="0" /><path
         d="m 540,1644.02 h 32.379"
         style="fill:none;stroke:#232323;stroke-width:7.5;stroke-linecap:square;stroke-linejoin:miter;stroke-miterlimit:10;stroke-dasharray:none;stroke-opacity:1"
         id="path80"
         inkscape:connector-curvature="0" /><path
         d="m 3780,1644.02 h -32.38"
         style="fill:none;stroke:#232323;stroke-width:7.5;stroke-linecap:square;stroke-linejoin:miter;stroke-miterlimit:10;stroke-dasharray:none;stroke-opacity:1"
         id="path82"
         inkscape:connector-curvature="0" /><path
         d="m 540,1955.27 h 32.379"
         style="fill:none;stroke:#232323;stroke-width:7.5;stroke-linecap:square;stroke-linejoin:miter;stroke-miterlimit:10;stroke-dasharray:none;stroke-opacity:1"
         id="path84"
         inkscape:connector-curvature="0" /><path
         d="m 3780,1955.27 h -32.38"
         style="fill:none;stroke:#232323;stroke-width:7.5;stroke-linecap:square;stroke-linejoin:miter;stroke-miterlimit:10;stroke-dasharray:none;stroke-opacity:1"
         id="path86"
         inkscape:connector-curvature="0" /><path
         d="m 540,2266.52 h 32.379"
         style="fill:none;stroke:#232323;stroke-width:7.5;stroke-linecap:square;stroke-linejoin:miter;stroke-miterlimit:10;stroke-dasharray:none;stroke-opacity:1"
         id="path88"
         inkscape:connector-curvature="0" /><path
         d="m 3780,2266.52 h -32.38"
         style="fill:none;stroke:#232323;stroke-width:7.5;stroke-linecap:square;stroke-linejoin:miter;stroke-miterlimit:10;stroke-dasharray:none;stroke-opacity:1"
         id="path90"
         inkscape:connector-curvature="0" /><path
         d="m 540,2577.77 h 32.379"
         style="fill:none;stroke:#232323;stroke-width:7.5;stroke-linecap:square;stroke-linejoin:miter;stroke-miterlimit:10;stroke-dasharray:none;stroke-opacity:1"
         id="path92"
         inkscape:connector-curvature="0" /><path
         d="m 3780,2577.77 h -32.38"
         style="fill:none;stroke:#232323;stroke-width:7.5;stroke-linecap:square;stroke-linejoin:miter;stroke-miterlimit:10;stroke-dasharray:none;stroke-opacity:1"
         id="path94"
         inkscape:connector-curvature="0" /><path
         d="m 540,2889.02 h 32.379"
         style="fill:none;stroke:#232323;stroke-width:7.5;stroke-linecap:square;stroke-linejoin:miter;stroke-miterlimit:10;stroke-dasharray:none;stroke-opacity:1"
         id="path96"
         inkscape:connector-curvature="0" /><path
         d="m 3780,2889.02 h -32.38"
         style="fill:none;stroke:#232323;stroke-width:7.5;stroke-linecap:square;stroke-linejoin:miter;stroke-miterlimit:10;stroke-dasharray:none;stroke-opacity:1"
         id="path98"
         inkscape:connector-curvature="0" /><path
         d="m 338.441,345.352 c -12.312,0 -21.839,5 -28.601,15 -6.68,10.078 -10,24.378 -10,42.808 0,18.52 3.32,32.82 10,42.82 6.762,10 16.289,15 28.601,15 12.379,0 21.911,-5 28.59,-15 6.641,-10 10,-24.3 10,-42.82 0,-18.43 -3.359,-32.73 -10,-42.808 -6.679,-10 -16.211,-15 -28.59,-15 z m 0,12.808 c 7.887,0 13.829,3.75 17.809,11.25 3.949,7.5 5.859,18.75 5.781,33.75 0.078,15.078 -1.832,26.41 -5.781,33.91 -3.98,7.5 -9.922,11.25 -17.809,11.25 -7.929,0 -13.871,-3.75 -17.82,-11.25 -3.859,-7.5 -5.781,-18.832 -5.781,-33.91 0,-15 1.922,-26.25 5.781,-33.75 3.949,-7.5 9.891,-11.25 17.82,-11.25 z"
         style="fill:#232323;fill-opacity:1;fill-rule:nonzero;stroke:none"
         id="path100"
         inkscape:connector-curvature="0" /><path
         d="m 386.988,348.48 h 16.7227 v 17.0313 H 386.988 Z"
         style="fill:#232323;fill-opacity:1;fill-rule:nonzero;stroke:none"
         id="path102"
         inkscape:connector-curvature="0" /><path
         d="m 460.43,460.98 c 9.879,0 17.73,-2.66 23.59,-7.968 5.82,-5.313 8.949,-12.66 9.378,-22.032 h -13.91 c -0.539,5.5 -2.457,9.758 -5.777,12.809 -3.359,3.012 -7.77,4.531 -13.281,4.531 -8.75,0 -15.469,-4.179 -20.16,-12.5 -4.059,-7.109 -6.321,-16.8 -6.719,-29.058 6.961,8.828 15.859,13.277 26.719,13.277 10.628,0 19.14,-3.437 25.628,-10.309 6.563,-6.8 9.84,-15.781 9.84,-27.031 0,-11.179 -3.547,-20.16 -10.617,-27.039 -7.109,-6.871 -16.371,-10.308 -27.82,-10.308 -12.301,0 -21.789,4.73 -28.43,14.218 -6.68,9.571 -10,23.16 -10,40.782 0,19.378 3.629,34.296 10.93,44.847 7.187,10.5 17.39,15.781 30.629,15.781 z m -25.16,-78.281 c 0,-7.187 2.109,-13.09 6.41,-17.66 4.261,-4.609 9.73,-6.879 16.41,-6.879 6.64,0 12.07,2.27 16.25,6.879 4.25,4.57 6.398,10.473 6.398,17.66 0,7.262 -2.148,13.199 -6.398,17.813 -4.18,4.57 -9.61,6.867 -16.25,6.867 -6.68,0 -12.149,-2.297 -16.41,-6.867 -4.301,-4.614 -6.41,-10.551 -6.41,-17.813 z"
         style="fill:#232323;fill-opacity:1;fill-rule:nonzero;stroke:none"
         id="path104"
         inkscape:connector-curvature="0" /><path
         d="m 259.18,656.602 c -12.301,0 -21.84,5 -28.59,15 -6.68,10.078 -10,24.378 -10,42.808 0,18.52 3.32,32.82 10,42.82 6.75,10 16.289,15 28.59,15 12.379,0 21.91,-5 28.59,-15 6.64,-10 10,-24.3 10,-42.82 0,-18.43 -3.36,-32.73 -10,-42.808 -6.68,-10 -16.211,-15 -28.59,-15 z m 0,12.808 c 7.89,0 13.832,3.75 17.808,11.25 3.953,7.5 5.864,18.75 5.782,33.75 0.082,15.078 -1.829,26.41 -5.782,33.91 -3.976,7.5 -9.918,11.25 -17.808,11.25 -7.93,0 -13.871,-3.75 -17.809,-11.25 -3.871,-7.5 -5.781,-18.832 -5.781,-33.91 0,-15 1.91,-26.25 5.781,-33.75 3.938,-7.5 9.879,-11.25 17.809,-11.25 z"
         style="fill:#232323;fill-opacity:1;fill-rule:nonzero;stroke:none"
         id="path106"
         inkscape:connector-curvature="0" /><path
         d="m 307.77,659.73 h 16.7188 v 17.0313 H 307.77 Z"
         style="fill:#232323;fill-opacity:1;fill-rule:nonzero;stroke:none"
         id="path108"
         inkscape:connector-curvature="0" /><path
         d="m 381.172,772.23 c 9.879,0 17.738,-2.66 23.598,-7.968 5.82,-5.313 8.941,-12.66 9.371,-22.032 H 400.23 c -0.539,5.5 -2.46,9.758 -5.781,12.809 -3.359,3.012 -7.769,4.531 -13.277,4.531 -8.75,0 -15.473,-4.179 -20.152,-12.5 -4.071,-7.109 -6.329,-16.8 -6.719,-29.058 6.949,8.828 15.859,13.277 26.719,13.277 10.621,0 19.14,-3.437 25.621,-10.309 6.558,-6.8 9.839,-15.781 9.839,-27.031 0,-11.179 -3.55,-20.16 -10.621,-27.039 -7.109,-6.871 -16.371,-10.308 -27.808,-10.308 -12.313,0 -21.801,4.73 -28.442,14.218 -6.679,9.571 -10,23.16 -10,40.782 0,19.378 3.629,34.296 10.942,44.847 7.179,10.5 17.379,15.781 30.621,15.781 z M 356.02,693.949 c 0,-7.187 2.101,-13.09 6.402,-17.66 4.258,-4.609 9.726,-6.879 16.406,-6.879 6.641,0 12.07,2.27 16.25,6.879 4.262,4.57 6.402,10.473 6.402,17.66 0,7.262 -2.14,13.199 -6.402,17.813 -4.18,4.57 -9.609,6.867 -16.25,6.867 -6.68,0 -12.148,-2.297 -16.406,-6.867 -4.301,-4.614 -6.402,-10.551 -6.402,-17.813 z"
         style="fill:#232323;fill-opacity:1;fill-rule:nonzero;stroke:none"
         id="path110"
         inkscape:connector-curvature="0" /><path
         d="m 495.078,695.98 c 0,-11.57 -3.668,-21.058 -10.937,-28.441 -7.192,-7.309 -16.411,-10.937 -27.661,-10.937 -11.25,0 -20.308,2.808 -27.179,8.437 -6.801,5.699 -10.59,13.512 -11.41,23.441 h 14.687 c 0.703,-6.25 3.203,-11.101 7.5,-14.531 4.262,-3.437 9.922,-5.16 17.031,-5.16 6.762,0 12.27,2.34 16.563,7.031 4.258,4.77 6.406,10.942 6.406,18.442 0,7.808 -2.269,13.976 -6.719,18.59 -4.488,4.57 -10.55,6.878 -18.129,6.878 -4.179,0 -8.199,-1.019 -12.031,-2.968 -3.859,-1.992 -6.789,-4.492 -8.75,-7.5 l -11.871,0.777 8.121,60 h 58.281 v -13.75 h -47.808 l -4.844,-30.777 0.473,0.308 c 6.25,4.262 12.808,6.41 19.679,6.41 11.758,0 21.141,-3.281 28.129,-9.851 6.95,-6.481 10.469,-15.27 10.469,-26.399 z"
         style="fill:#232323;fill-opacity:1;fill-rule:nonzero;stroke:none"
         id="path112"
         inkscape:connector-curvature="0" /><path
         d="m 338.441,967.852 c -12.312,0 -21.839,5 -28.601,15 -6.68,10.078 -10,24.378 -10,42.808 0,18.52 3.32,32.82 10,42.82 6.762,10 16.289,15 28.601,15 12.379,0 21.911,-5 28.59,-15 6.641,-10 10,-24.3 10,-42.82 0,-18.43 -3.359,-32.73 -10,-42.808 -6.679,-10 -16.211,-15 -28.59,-15 z m 0,12.808 c 7.887,0 13.829,3.75 17.809,11.25 3.949,7.5 5.859,18.75 5.781,33.75 0.078,15.08 -1.832,26.41 -5.781,33.91 -3.98,7.5 -9.922,11.25 -17.809,11.25 -7.929,0 -13.871,-3.75 -17.82,-11.25 -3.859,-7.5 -5.781,-18.83 -5.781,-33.91 0,-15 1.922,-26.25 5.781,-33.75 3.949,-7.5 9.891,-11.25 17.82,-11.25 z"
         style="fill:#232323;fill-opacity:1;fill-rule:nonzero;stroke:none"
         id="path114"
         inkscape:connector-curvature="0" /><path
         d="m 386.988,970.98 h 16.7227 v 17.0313 H 386.988 Z"
         style="fill:#232323;fill-opacity:1;fill-rule:nonzero;stroke:none"
         id="path116"
         inkscape:connector-curvature="0" /><path
         d="m 434.961,970.98 c 3.629,18.821 9.301,36.29 17.027,52.34 7.582,15.51 17.391,30.23 29.383,44.22 h -62.66 v 13.75 h 77.809 v -12.5 c -12.301,-14.49 -22.18,-29.69 -29.68,-45.63 -7.5,-16.05 -12.891,-33.43 -16.102,-52.18 z"
         style="fill:#232323;fill-opacity:1;fill-rule:nonzero;stroke:none"
         id="path118"
         inkscape:connector-curvature="0" /><path
         d="m 259.18,1279.1 c -12.301,0 -21.84,5 -28.59,15 -6.68,10.08 -10,24.38 -10,42.81 0,18.52 3.32,32.82 10,42.82 6.75,10 16.289,15 28.59,15 12.379,0 21.91,-5 28.59,-15 6.64,-10 10,-24.3 10,-42.82 0,-18.43 -3.36,-32.73 -10,-42.81 -6.68,-10 -16.211,-15 -28.59,-15 z m 0,12.81 c 7.89,0 13.832,3.75 17.808,11.25 3.953,7.5 5.864,18.75 5.782,33.75 0.082,15.08 -1.829,26.41 -5.782,33.91 -3.976,7.5 -9.918,11.25 -17.808,11.25 -7.93,0 -13.871,-3.75 -17.809,-11.25 -3.871,-7.5 -5.781,-18.83 -5.781,-33.91 0,-15 1.91,-26.25 5.781,-33.75 3.938,-7.5 9.879,-11.25 17.809,-11.25 z"
         style="fill:#232323;fill-opacity:1;fill-rule:nonzero;stroke:none"
         id="path120"
         inkscape:connector-curvature="0" /><path
         d="m 307.77,1282.23 h 16.7188 v 17.0313 H 307.77 Z"
         style="fill:#232323;fill-opacity:1;fill-rule:nonzero;stroke:none"
         id="path122"
         inkscape:connector-curvature="0" /><path
         d="m 355.699,1282.23 c 3.641,18.82 9.301,36.29 17.031,52.34 7.579,15.51 17.391,30.23 29.379,44.22 h -62.66 v 13.75 h 77.821 v -12.5 c -12.309,-14.49 -22.192,-29.69 -29.692,-45.63 -7.5,-16.05 -12.887,-33.43 -16.098,-52.18 z"
         style="fill:#232323;fill-opacity:1;fill-rule:nonzero;stroke:none"
         id="path124"
         inkscape:connector-curvature="0" /><path
         d="m 495.078,1318.48 c 0,-11.57 -3.668,-21.06 -10.937,-28.44 -7.192,-7.31 -16.411,-10.94 -27.661,-10.94 -11.25,0 -20.308,2.81 -27.179,8.44 -6.801,5.7 -10.59,13.51 -11.41,23.44 h 14.687 c 0.703,-6.25 3.203,-11.1 7.5,-14.53 4.262,-3.44 9.922,-5.16 17.031,-5.16 6.762,0 12.27,2.34 16.563,7.03 4.258,4.77 6.406,10.94 6.406,18.44 0,7.81 -2.269,13.98 -6.719,18.59 -4.488,4.57 -10.55,6.88 -18.129,6.88 -4.179,0 -8.199,-1.02 -12.031,-2.97 -3.859,-1.99 -6.789,-4.49 -8.75,-7.5 l -11.871,0.78 8.121,60 h 58.281 v -13.75 h -47.808 l -4.844,-30.78 0.473,0.31 c 6.25,4.26 12.808,6.41 19.679,6.41 11.758,0 21.141,-3.28 28.129,-9.85 6.95,-6.48 10.469,-15.27 10.469,-26.4 z"
         style="fill:#232323;fill-opacity:1;fill-rule:nonzero;stroke:none"
         id="path126"
         inkscape:connector-curvature="0" /><path
         d="m 338.441,1590.35 c -12.312,0 -21.839,5 -28.601,15 -6.68,10.08 -10,24.38 -10,42.81 0,18.52 3.32,32.82 10,42.82 6.762,10 16.289,15 28.601,15 12.379,0 21.911,-5 28.59,-15 6.641,-10 10,-24.3 10,-42.82 0,-18.43 -3.359,-32.73 -10,-42.81 -6.679,-10 -16.211,-15 -28.59,-15 z m 0,12.81 c 7.887,0 13.829,3.75 17.809,11.25 3.949,7.5 5.859,18.75 5.781,33.75 0.078,15.08 -1.832,26.41 -5.781,33.91 -3.98,7.5 -9.922,11.25 -17.809,11.25 -7.929,0 -13.871,-3.75 -17.82,-11.25 -3.859,-7.5 -5.781,-18.83 -5.781,-33.91 0,-15 1.922,-26.25 5.781,-33.75 3.949,-7.5 9.891,-11.25 17.82,-11.25 z"
         style="fill:#232323;fill-opacity:1;fill-rule:nonzero;stroke:none"
         id="path128"
         inkscape:connector-curvature="0" /><path
         d="m 386.988,1593.48 h 16.7227 v 17.0313 H 386.988 Z"
         style="fill:#232323;fill-opacity:1;fill-rule:nonzero;stroke:none"
         id="path130"
         inkscape:connector-curvature="0" /><path
         d="m 476.68,1653.01 c 3.011,-1.37 5.781,-3.05 8.281,-5 7.07,-5.74 10.629,-13.24 10.629,-22.5 0,-10.55 -3.559,-19.03 -10.629,-25.47 -6.992,-6.49 -16.25,-9.69 -27.813,-9.69 -11.488,0 -20.738,3.2 -27.808,9.69 -7,6.44 -10.469,14.92 -10.469,25.47 0,9.26 3.508,16.76 10.617,22.5 2.391,1.95 5.082,3.63 8.133,5 -1.883,1.01 -3.711,2.19 -5.473,3.44 -6.25,4.88 -9.378,11.32 -9.378,19.37 0,9.06 3.128,16.33 9.378,21.88 6.332,5.5 14.692,8.28 25,8.28 10.313,0 18.633,-2.78 25,-8.28 6.332,-5.55 9.532,-12.82 9.532,-21.88 0,-8.05 -3.2,-14.49 -9.532,-19.37 -1.679,-1.37 -3.519,-2.5 -5.468,-3.44 z m -19.532,5.94 c 5.704,0 10.391,1.56 14.063,4.68 3.629,3.21 5.469,7.39 5.469,12.5 0,5 -1.84,9.1 -5.469,12.35 -3.672,3.2 -8.359,4.84 -14.063,4.84 -5.738,0 -10.429,-1.64 -14.058,-4.84 -3.68,-3.25 -5.469,-7.35 -5.469,-12.35 0,-5.11 1.789,-9.29 5.469,-12.5 3.629,-3.12 8.32,-4.68 14.058,-4.68 z m 0,-12.19 c -6.878,0 -12.5,-2.11 -16.878,-6.25 -4.29,-4.06 -6.399,-9.3 -6.399,-15.63 0,-6.36 2.109,-11.56 6.399,-15.62 4.378,-4.06 10,-6.1 16.878,-6.1 6.872,0 12.5,2.04 16.872,6.1 4.378,4.06 6.57,9.26 6.57,15.62 0,6.33 -2.192,11.6 -6.57,15.78 -4.372,4.07 -10,6.1 -16.872,6.1 z"
         style="fill:#232323;fill-opacity:1;fill-rule:nonzero;stroke:none"
         id="path132"
         inkscape:connector-curvature="0" /><path
         d="m 259.18,1901.6 c -12.301,0 -21.84,5 -28.59,15 -6.68,10.08 -10,24.38 -10,42.81 0,18.52 3.32,32.82 10,42.82 6.75,10 16.289,15 28.59,15 12.379,0 21.91,-5 28.59,-15 6.64,-10 10,-24.3 10,-42.82 0,-18.43 -3.36,-32.73 -10,-42.81 -6.68,-10 -16.211,-15 -28.59,-15 z m 0,12.81 c 7.89,0 13.832,3.75 17.808,11.25 3.953,7.5 5.864,18.75 5.782,33.75 0.082,15.08 -1.829,26.41 -5.782,33.91 -3.976,7.5 -9.918,11.25 -17.808,11.25 -7.93,0 -13.871,-3.75 -17.809,-11.25 -3.871,-7.5 -5.781,-18.83 -5.781,-33.91 0,-15 1.91,-26.25 5.781,-33.75 3.938,-7.5 9.879,-11.25 17.809,-11.25 z"
         style="fill:#232323;fill-opacity:1;fill-rule:nonzero;stroke:none"
         id="path134"
         inkscape:connector-curvature="0" /><path
         d="m 307.77,1904.73 h 16.7188 v 17.0313 H 307.77 Z"
         style="fill:#232323;fill-opacity:1;fill-rule:nonzero;stroke:none"
         id="path136"
         inkscape:connector-curvature="0" /><path
         d="m 397.422,1964.26 c 3.008,-1.37 5.777,-3.05 8.277,-5 7.071,-5.74 10.629,-13.24 10.629,-22.5 0,-10.55 -3.558,-19.03 -10.629,-25.47 -6.988,-6.49 -16.25,-9.69 -27.808,-9.69 -11.481,0 -20.743,3.2 -27.813,9.69 -6.988,6.44 -10.469,14.92 -10.469,25.47 0,9.26 3.512,16.76 10.621,22.5 2.391,1.95 5.079,3.63 8.129,5 -1.879,1.01 -3.711,2.19 -5.468,3.44 -6.25,4.88 -9.371,11.32 -9.371,19.37 0,9.06 3.121,16.33 9.371,21.88 6.328,5.5 14.687,8.28 25,8.28 10.308,0 18.629,-2.78 25,-8.28 6.328,-5.55 9.531,-12.82 9.531,-21.88 0,-8.05 -3.203,-14.49 -9.531,-19.37 -1.68,-1.37 -3.512,-2.5 -5.469,-3.44 z m -19.531,5.94 c 5.699,0 10.39,1.56 14.058,4.68 3.641,3.21 5.473,7.39 5.473,12.5 0,5 -1.832,9.1 -5.473,12.35 -3.668,3.2 -8.359,4.84 -14.058,4.84 -5.743,0 -10.43,-1.64 -14.063,-4.84 -3.668,-3.25 -5.469,-7.35 -5.469,-12.35 0,-5.11 1.801,-9.29 5.469,-12.5 3.633,-3.12 8.32,-4.68 14.063,-4.68 z m 0,-12.19 c -6.871,0 -12.5,-2.11 -16.871,-6.25 -4.301,-4.06 -6.411,-9.3 -6.411,-15.63 0,-6.36 2.11,-11.56 6.411,-15.62 4.371,-4.06 10,-6.1 16.871,-6.1 6.879,0 12.5,2.04 16.879,6.1 4.371,4.06 6.558,9.26 6.558,15.62 0,6.33 -2.187,11.6 -6.558,15.78 -4.379,4.07 -10,6.1 -16.879,6.1 z"
         style="fill:#232323;fill-opacity:1;fill-rule:nonzero;stroke:none"
         id="path138"
         inkscape:connector-curvature="0" /><path
         d="m 495.078,1940.98 c 0,-11.57 -3.668,-21.06 -10.937,-28.44 -7.192,-7.31 -16.411,-10.94 -27.661,-10.94 -11.25,0 -20.308,2.81 -27.179,8.44 -6.801,5.7 -10.59,13.51 -11.41,23.44 h 14.687 c 0.703,-6.25 3.203,-11.1 7.5,-14.53 4.262,-3.44 9.922,-5.16 17.031,-5.16 6.762,0 12.27,2.34 16.563,7.03 4.258,4.77 6.406,10.94 6.406,18.44 0,7.81 -2.269,13.98 -6.719,18.59 -4.488,4.57 -10.55,6.88 -18.129,6.88 -4.179,0 -8.199,-1.02 -12.031,-2.97 -3.859,-1.99 -6.789,-4.49 -8.75,-7.5 l -11.871,0.78 8.121,60 h 58.281 v -13.75 h -47.808 l -4.844,-30.78 0.473,0.31 c 6.25,4.26 12.808,6.41 19.679,6.41 11.758,0 21.141,-3.28 28.129,-9.85 6.95,-6.48 10.469,-15.27 10.469,-26.4 z"
         style="fill:#232323;fill-opacity:1;fill-rule:nonzero;stroke:none"
         id="path140"
         inkscape:connector-curvature="0" /><path
         d="m 338.441,2212.85 c -12.312,0 -21.839,5 -28.601,15 -6.68,10.08 -10,24.38 -10,42.81 0,18.52 3.32,32.82 10,42.82 6.762,10 16.289,15 28.601,15 12.379,0 21.911,-5 28.59,-15 6.641,-10 10,-24.3 10,-42.82 0,-18.43 -3.359,-32.73 -10,-42.81 -6.679,-10 -16.211,-15 -28.59,-15 z m 0,12.81 c 7.887,0 13.829,3.75 17.809,11.25 3.949,7.5 5.859,18.75 5.781,33.75 0.078,15.08 -1.832,26.41 -5.781,33.91 -3.98,7.5 -9.922,11.25 -17.809,11.25 -7.929,0 -13.871,-3.75 -17.82,-11.25 -3.859,-7.5 -5.781,-18.83 -5.781,-33.91 0,-15 1.922,-26.25 5.781,-33.75 3.949,-7.5 9.891,-11.25 17.82,-11.25 z"
         style="fill:#232323;fill-opacity:1;fill-rule:nonzero;stroke:none"
         id="path142"
         inkscape:connector-curvature="0" /><path
         d="m 386.988,2215.98 h 16.7227 v 17.0313 H 386.988 Z"
         style="fill:#232323;fill-opacity:1;fill-rule:nonzero;stroke:none"
         id="path144"
         inkscape:connector-curvature="0" /><path
         d="m 454.34,2212.85 c -10,0 -17.969,2.66 -23.91,7.97 -5.86,5.39 -8.981,12.81 -9.379,22.19 h 13.597 c 0.512,-5.86 2.5,-10.31 5.942,-13.44 3.43,-3.12 8,-4.69 13.75,-4.69 8.43,0 14.922,4.69 19.531,14.07 3.32,7.07 5.469,16.32 6.399,27.81 -6.989,-8.67 -15.622,-12.97 -25.93,-12.97 -10.43,0 -18.871,3.44 -25.32,10.31 -6.36,6.88 -9.532,15.86 -9.532,27.03 0,11.25 3.442,20.24 10.313,27.03 6.961,6.88 16.14,10.32 27.5,10.32 12.078,0 21.41,-4.34 27.969,-12.97 6.57,-8.56 9.851,-20.71 9.851,-36.41 0,-21.25 -3.562,-37.62 -10.633,-49.06 -7.109,-11.49 -17.148,-17.19 -30.148,-17.19 z m 24.371,78.28 c 0,7.27 -2.109,13.21 -6.25,17.82 -4.063,4.57 -9.371,6.87 -15.941,6.87 -6.481,0 -11.79,-2.3 -15.93,-6.87 -4.07,-4.61 -6.102,-10.55 -6.102,-17.82 0,-7.18 2.032,-13.12 6.102,-17.81 4.14,-4.61 9.449,-6.87 15.93,-6.87 6.57,0 11.878,2.34 15.941,7.03 4.141,4.57 6.25,10.47 6.25,17.65 z"
         style="fill:#232323;fill-opacity:1;fill-rule:nonzero;stroke:none"
         id="path146"
         inkscape:connector-curvature="0" /><path
         d="m 259.18,2524.1 c -12.301,0 -21.84,5 -28.59,15 -6.68,10.08 -10,24.38 -10,42.81 0,18.52 3.32,32.82 10,42.82 6.75,10 16.289,15 28.59,15 12.379,0 21.91,-5 28.59,-15 6.64,-10 10,-24.3 10,-42.82 0,-18.43 -3.36,-32.73 -10,-42.81 -6.68,-10 -16.211,-15 -28.59,-15 z m 0,12.81 c 7.89,0 13.832,3.75 17.808,11.25 3.953,7.5 5.864,18.75 5.782,33.75 0.082,15.08 -1.829,26.41 -5.782,33.91 -3.976,7.5 -9.918,11.25 -17.808,11.25 -7.93,0 -13.871,-3.75 -17.809,-11.25 -3.871,-7.5 -5.781,-18.83 -5.781,-33.91 0,-15 1.91,-26.25 5.781,-33.75 3.938,-7.5 9.879,-11.25 17.809,-11.25 z"
         style="fill:#232323;fill-opacity:1;fill-rule:nonzero;stroke:none"
         id="path148"
         inkscape:connector-curvature="0" /><path
         d="m 307.77,2527.23 h 16.7188 v 17.0313 H 307.77 Z"
         style="fill:#232323;fill-opacity:1;fill-rule:nonzero;stroke:none"
         id="path150"
         inkscape:connector-curvature="0" /><path
         d="m 375.078,2524.1 c -10,0 -17.969,2.66 -23.906,7.97 -5.863,5.39 -8.981,12.81 -9.371,22.19 h 13.59 c 0.507,-5.86 2.5,-10.31 5.937,-13.44 3.442,-3.12 8.012,-4.69 13.75,-4.69 8.442,0 14.922,4.69 19.531,14.07 3.321,7.07 5.469,16.32 6.411,27.81 -7,-8.67 -15.629,-12.97 -25.942,-12.97 -10.43,0 -18.867,3.44 -25.308,10.31 -6.372,6.88 -9.54,15.86 -9.54,27.03 0,11.25 3.442,20.24 10.321,27.03 6.949,6.88 16.129,10.32 27.5,10.32 12.07,0 21.398,-4.34 27.969,-12.97 6.558,-8.56 9.839,-20.71 9.839,-36.41 0,-21.25 -3.558,-37.62 -10.629,-49.06 -7.109,-11.49 -17.14,-17.19 -30.152,-17.19 z m 24.371,78.28 c 0,7.27 -2.109,13.21 -6.25,17.82 -4.058,4.57 -9.371,6.87 -15.929,6.87 -6.489,0 -11.801,-2.3 -15.942,-6.87 -4.058,-4.61 -6.098,-10.55 -6.098,-17.82 0,-7.18 2.04,-13.12 6.098,-17.81 4.141,-4.61 9.453,-6.87 15.942,-6.87 6.558,0 11.871,2.34 15.929,7.03 4.141,4.57 6.25,10.47 6.25,17.65 z"
         style="fill:#232323;fill-opacity:1;fill-rule:nonzero;stroke:none"
         id="path152"
         inkscape:connector-curvature="0" /><path
         d="m 495.078,2563.48 c 0,-11.57 -3.668,-21.06 -10.937,-28.44 -7.192,-7.31 -16.411,-10.94 -27.661,-10.94 -11.25,0 -20.308,2.81 -27.179,8.44 -6.801,5.7 -10.59,13.51 -11.41,23.44 h 14.687 c 0.703,-6.25 3.203,-11.1 7.5,-14.53 4.262,-3.44 9.922,-5.16 17.031,-5.16 6.762,0 12.27,2.34 16.563,7.03 4.258,4.77 6.406,10.94 6.406,18.44 0,7.81 -2.269,13.98 -6.719,18.59 -4.488,4.57 -10.55,6.88 -18.129,6.88 -4.179,0 -8.199,-1.02 -12.031,-2.97 -3.859,-1.99 -6.789,-4.49 -8.75,-7.5 l -11.871,0.78 8.121,60 h 58.281 v -13.75 h -47.808 l -4.844,-30.78 0.473,0.31 c 6.25,4.26 12.808,6.41 19.679,6.41 11.758,0 21.141,-3.28 28.129,-9.85 6.95,-6.48 10.469,-15.27 10.469,-26.4 z"
         style="fill:#232323;fill-opacity:1;fill-rule:nonzero;stroke:none"
         id="path154"
         inkscape:connector-curvature="0" /><path
         d="m 455.23,2838.48 v 79.84 h -26.25 v 11.25 c 7.7,-0.12 13.989,1.56 18.911,5 4.879,3.52 8.48,8.98 10.781,16.41 h 11.558 v -112.5 z"
         style="fill:#232323;fill-opacity:1;fill-rule:nonzero;stroke:none"
         id="path156"
         inkscape:connector-curvature="0" /><path
         d="m 540,1751.56 v 445.78"
         style="fill:none;stroke:#000000;stroke-width:7.5;stroke-linecap:square;stroke-linejoin:miter;stroke-miterlimit:10;stroke-dasharray:none;stroke-opacity:1"
         id="path158"
         inkscape:connector-curvature="0" /><path
         d="m 1350,1787.58 v 464.88"
         style="fill:none;stroke:#000000;stroke-width:7.5;stroke-linecap:square;stroke-linejoin:miter;stroke-miterlimit:10;stroke-dasharray:none;stroke-opacity:1"
         id="path160"
         inkscape:connector-curvature="0" /><path
         d="m 2160,2223.67 v 349.14"
         style="fill:none;stroke:#000000;stroke-width:7.5;stroke-linecap:square;stroke-linejoin:miter;stroke-miterlimit:10;stroke-dasharray:none;stroke-opacity:1"
         id="path162"
         inkscape:connector-curvature="0" /><path
         d="m 2970,2265.16 v 321.17"
         style="fill:none;stroke:#000000;stroke-width:7.5;stroke-linecap:square;stroke-linejoin:miter;stroke-miterlimit:10;stroke-dasharray:none;stroke-opacity:1"
         id="path164"
         inkscape:connector-curvature="0" /><path
         d="M 3780,2306.52 V 2607.5"
         style="fill:none;stroke:#000000;stroke-width:7.5;stroke-linecap:square;stroke-linejoin:miter;stroke-miterlimit:10;stroke-dasharray:none;stroke-opacity:1"
         id="path166"
         inkscape:connector-curvature="0" /><path
         d="m 539.691,1751.56 h 32.688"
         style="fill:none;stroke:#000000;stroke-width:7.5;stroke-linecap:square;stroke-linejoin:miter;stroke-miterlimit:10;stroke-dasharray:none;stroke-opacity:1"
         id="path168"
         inkscape:connector-curvature="0" /><path
         d="m 1317.62,1787.58 h 64.76"
         style="fill:none;stroke:#000000;stroke-width:7.5;stroke-linecap:square;stroke-linejoin:miter;stroke-miterlimit:10;stroke-dasharray:none;stroke-opacity:1"
         id="path170"
         inkscape:connector-curvature="0" /><path
         d="m 2127.62,2223.67 h 64.76"
         style="fill:none;stroke:#000000;stroke-width:7.5;stroke-linecap:square;stroke-linejoin:miter;stroke-miterlimit:10;stroke-dasharray:none;stroke-opacity:1"
         id="path172"
         inkscape:connector-curvature="0" /><path
         d="m 2937.62,2265.16 h 64.76"
         style="fill:none;stroke:#000000;stroke-width:7.5;stroke-linecap:square;stroke-linejoin:miter;stroke-miterlimit:10;stroke-dasharray:none;stroke-opacity:1"
         id="path174"
         inkscape:connector-curvature="0" /><path
         d="m 3747.62,2306.52 h 32.69"
         style="fill:none;stroke:#000000;stroke-width:7.5;stroke-linecap:square;stroke-linejoin:miter;stroke-miterlimit:10;stroke-dasharray:none;stroke-opacity:1"
         id="path176"
         inkscape:connector-curvature="0" /><path
         d="m 539.691,2197.34 h 32.688"
         style="fill:none;stroke:#000000;stroke-width:7.5;stroke-linecap:square;stroke-linejoin:miter;stroke-miterlimit:10;stroke-dasharray:none;stroke-opacity:1"
         id="path178"
         inkscape:connector-curvature="0" /><path
         d="m 1317.62,2252.46 h 64.76"
         style="fill:none;stroke:#000000;stroke-width:7.5;stroke-linecap:square;stroke-linejoin:miter;stroke-miterlimit:10;stroke-dasharray:none;stroke-opacity:1"
         id="path180"
         inkscape:connector-curvature="0" /><path
         d="m 2127.62,2572.81 h 64.76"
         style="fill:none;stroke:#000000;stroke-width:7.5;stroke-linecap:square;stroke-linejoin:miter;stroke-miterlimit:10;stroke-dasharray:none;stroke-opacity:1"
         id="path182"
         inkscape:connector-curvature="0" /><path
         d="m 2937.62,2586.33 h 64.76"
         style="fill:none;stroke:#000000;stroke-width:7.5;stroke-linecap:square;stroke-linejoin:miter;stroke-miterlimit:10;stroke-dasharray:none;stroke-opacity:1"
         id="path184"
         inkscape:connector-curvature="0" /><path
         d="m 3747.62,2607.5 h 32.69"
         style="fill:none;stroke:#000000;stroke-width:7.5;stroke-linecap:square;stroke-linejoin:miter;stroke-miterlimit:10;stroke-dasharray:none;stroke-opacity:1"
         id="path186"
         inkscape:connector-curvature="0" /><path
         d="m 540,1974.45 810,45.55 810,378.24 810,27.5 810,31.25"
         style="fill:none;stroke:#000000;stroke-width:7.5;stroke-linecap:square;stroke-linejoin:miter;stroke-miterlimit:10;stroke-dasharray:none;stroke-opacity:1"
         id="path188"
         inkscape:connector-curvature="0" /><g
         id="g190"
         transform="matrix(10,0,0,10,45,0)"><text
   transform="matrix(0,1,1,0,10.5938,139.924)"
   style="font-variant:normal;font-weight:normal;font-size:16px;font-family:'Liberation Serif';-inkscape-font-specification:LiberationSerif;writing-mode:lr-tb;fill:#000000;fill-opacity:1;fill-rule:nonzero;stroke:none"
   id="text194"><tspan
     x="0 11.552 23.104"
     y="0"
     sodipodi:role="line"
     id="tspan192"
     style="font-style:normal;font-variant:normal;font-weight:normal;font-stretch:normal;font-family:'思源黑体';-inkscape-font-specification:'思源黑体'">AUC</tspan></text>


</g></g></g></svg>