<?xml version="1.0" encoding="UTF-8" standalone="no"?>
<!-- Created with Inkscape (http://www.inkscape.org/) -->

<svg
   xmlns:dc="http://purl.org/dc/elements/1.1/"
   xmlns:cc="http://creativecommons.org/ns#"
   xmlns:rdf="http://www.w3.org/1999/02/22-rdf-syntax-ns#"
   xmlns:svg="http://www.w3.org/2000/svg"
   xmlns="http://www.w3.org/2000/svg"
   xmlns:sodipodi="http://sodipodi.sourceforge.net/DTD/sodipodi-0.dtd"
   xmlns:inkscape="http://www.inkscape.org/namespaces/inkscape"
   width="210mm"
   height="297mm"
   viewBox="0 0 210 297"
   version="1.1"
   id="svg6853"
   inkscape:version="0.92.2 2405546, 2018-03-11"
   sodipodi:docname="r5.svg">
  <defs
     id="defs6847" />
  <sodipodi:namedview
     id="base"
     pagecolor="#ffffff"
     bordercolor="#666666"
     borderopacity="1.0"
     inkscape:pageopacity="0.0"
     inkscape:pageshadow="2"
     inkscape:zoom="1.4"
     inkscape:cx="616.24204"
     inkscape:cy="364.24422"
     inkscape:document-units="mm"
     inkscape:current-layer="layer1"
     showgrid="false"
     inkscape:window-width="947"
     inkscape:window-height="1010"
     inkscape:window-x="2885"
     inkscape:window-y="34"
     inkscape:window-maximized="0" />
  <metadata
     id="metadata6850">
    <rdf:RDF>
      <cc:Work
         rdf:about="">
        <dc:format>image/svg+xml</dc:format>
        <dc:type
           rdf:resource="http://purl.org/dc/dcmitype/StillImage" />
        <dc:title />
      </cc:Work>
    </rdf:RDF>
  </metadata>
  <g
     inkscape:label="Layer 1"
     inkscape:groupmode="layer"
     id="layer1">
    <path
       inkscape:connector-curvature="0"
       id="path1865"
       d="M 209.29546,183.36817 H -12.96281 V 64.229865 h 222.25827"
       style="fill:none;stroke:#000000;stroke-width:0.26475194;stroke-linecap:butt;stroke-linejoin:miter;stroke-miterlimit:10;stroke-opacity:1" />
    <path
       inkscape:connector-curvature="0"
       id="path1867"
       d="M -13.095102,183.36817 H 209.29546"
       style="fill:none;stroke:#d1d1d1;stroke-width:0.26475194;stroke-linecap:butt;stroke-linejoin:miter;stroke-miterlimit:10;stroke-opacity:0.52548996" />
    <path
       inkscape:connector-curvature="0"
       id="path1869"
       d="M -13.095102,166.34802 H 209.29546"
       style="fill:none;stroke:#d1d1d1;stroke-width:0.26475194;stroke-linecap:butt;stroke-linejoin:miter;stroke-miterlimit:10;stroke-opacity:0.52548996" />
    <path
       inkscape:connector-curvature="0"
       id="path1871"
       d="M -13.095102,149.32787 H 209.29546"
       style="fill:none;stroke:#d1d1d1;stroke-width:0.26475194;stroke-linecap:butt;stroke-linejoin:miter;stroke-miterlimit:10;stroke-opacity:0.52548996" />
    <path
       inkscape:connector-curvature="0"
       id="path1873"
       d="M -13.095102,132.30772 H 209.29546"
       style="fill:none;stroke:#d1d1d1;stroke-width:0.26475194;stroke-linecap:butt;stroke-linejoin:miter;stroke-miterlimit:10;stroke-opacity:0.52548996" />
    <path
       inkscape:connector-curvature="0"
       id="path1875"
       d="M -13.095102,115.28894 H 209.29546"
       style="fill:none;stroke:#d1d1d1;stroke-width:0.26475194;stroke-linecap:butt;stroke-linejoin:miter;stroke-miterlimit:10;stroke-opacity:0.52548996" />
    <path
       inkscape:connector-curvature="0"
       id="path1877"
       d="M -13.095102,98.268793 H 209.29546"
       style="fill:none;stroke:#d1d1d1;stroke-width:0.26475194;stroke-linecap:butt;stroke-linejoin:miter;stroke-miterlimit:10;stroke-opacity:0.52548996" />
    <path
       inkscape:connector-curvature="0"
       id="path1879"
       d="M -13.095102,81.248641 H 209.29546"
       style="fill:none;stroke:#d1d1d1;stroke-width:0.26475194;stroke-linecap:butt;stroke-linejoin:miter;stroke-miterlimit:10;stroke-opacity:0.52548996" />
    <path
       inkscape:connector-curvature="0"
       id="path1881"
       d="M -13.095102,64.229865 H 209.29546"
       style="fill:none;stroke:#d1d1d1;stroke-width:0.26475194;stroke-linecap:butt;stroke-linejoin:miter;stroke-miterlimit:10;stroke-opacity:0.52548996" />
    <path
       inkscape:connector-curvature="0"
       id="path1883"
       d="m -12.96281,184.82338 v -1.45521 h 222.39194 v 1.45521"
       style="fill:none;stroke:#000000;stroke-width:0.26475194;stroke-linecap:butt;stroke-linejoin:miter;stroke-miterlimit:10;stroke-opacity:0.74901997" />
    <path
       inkscape:connector-curvature="0"
       id="path1885"
       d="m 0.11890519,183.23588 v 1.5875"
       style="fill:none;stroke:#000000;stroke-width:0.26475194;stroke-linecap:butt;stroke-linejoin:miter;stroke-miterlimit:10;stroke-opacity:0.74901997" />
    <path
       inkscape:connector-curvature="0"
       id="path1887"
       d="m 0.98707119,186.69472 c 0,-0.28938 -0.09233,-0.51537 -0.275608,-0.67797 -0.180523,-0.16538 -0.427194,-0.24807 -0.738629,-0.24807 -0.220486,0 -0.443728,0.0579 -0.666967,0.17089 -0.224621,0.11024 -0.43408399,0.27008 -0.62838599,0.47956 v -0.65595 c 0.172255,-0.17914 0.36931099,-0.31694 0.58979899,-0.41342 0.223239,-0.0951 0.485068,-0.1433 0.782725,-0.1433 0.480935,0 0.868164,0.12954 1.16306601,0.38583 0.29352,0.25771 0.440973,0.60636 0.440973,1.04733 0,0.39412 -0.09095,0.73311 -0.270098,1.01974 -0.180525,0.28663 -0.48782501,0.58155 -0.92052701,0.88194 -0.449242,0.30868 -0.748279,0.52917 -0.898483,0.66146 -0.151585,0.13229 -0.256315,0.26183 -0.314193,0.38587 -0.05926,0.12125 -0.08819,0.26871 -0.08819,0.44097 H 1.8138972 v 0.60082 h -3.356901 v -0.26459 c 0,-0.30868 0.04134,-0.56913 0.126778,-0.78274 0.08406,-0.21632 0.221866,-0.4258 0.413414,-0.62837 0.19430199,-0.20119 0.49609399,-0.44647 0.90399399,-0.7331 0.418923,-0.29355 0.702797,-0.55122 0.854382,-0.77171 0.154339,-0.22323 0.23151,-0.47543 0.23151,-0.75519 z m 0,0"
       style="fill:#000000;fill-opacity:1;fill-rule:nonzero;stroke:none;stroke-width:0.35277775" />
    <path
       inkscape:connector-curvature="0"
       id="path1889"
       d="m 26.282341,183.23588 v 1.5875"
       style="fill:none;stroke:#000000;stroke-width:0.26475194;stroke-linecap:butt;stroke-linejoin:miter;stroke-miterlimit:10;stroke-opacity:0.74901997" />
    <path
       inkscape:connector-curvature="0"
       id="path1891"
       d="m 27.415086,185.29465 v 3.52228 h 0.799264 v 0.55672 h -0.799264 v 1.25677 H 26.76465 v -1.25677 h -2.491491 v -0.52367 c 0.440971,-0.49882 0.884703,-1.07487 1.333939,-1.72529 0.447866,-0.65045 0.817179,-1.25952 1.107946,-1.83004 z m -2.386761,3.52228 h 1.736325 v -2.54113 c -0.239776,0.42997 -0.496093,0.84751 -0.771699,1.25127 -0.272849,0.401 -0.593934,0.83097 -0.964626,1.28986 z m 0,0"
       style="fill:#000000;fill-opacity:1;fill-rule:nonzero;stroke:none;stroke-width:0.35277775" />
    <path
       inkscape:connector-curvature="0"
       id="path1893"
       d="m 52.445773,183.23588 v 1.5875"
       style="fill:none;stroke:#000000;stroke-width:0.26475194;stroke-linecap:butt;stroke-linejoin:miter;stroke-miterlimit:10;stroke-opacity:0.74901997" />
    <path
       inkscape:connector-curvature="0"
       id="path1895"
       d="m 53.881688,185.97816 c -0.275609,-0.14333 -0.566375,-0.21498 -0.870921,-0.21498 -0.460267,0 -0.830959,0.20256 -1.113454,0.60635 -0.279744,0.40101 -0.42168,0.95084 -0.424434,1.64811 h 0.01654 c 0.253558,-0.49195 0.655947,-0.73861 1.207164,-0.73861 0.463021,0 0.832332,0.15159 1.10794,0.45198 0.275609,0.3018 0.413414,0.7028 0.413414,1.20166 0,0.52229 -0.159856,0.95085 -0.479559,1.28433 -0.31695,0.33485 -0.722091,0.50161 -1.218184,0.50161 -0.540192,0 -0.964629,-0.21085 -1.27331,-0.6339 -0.308679,-0.42168 -0.463021,-1.0225 -0.463021,-1.80249 0,-0.94393 0.201194,-1.6922 0.606337,-2.24342 0.403765,-0.55396 0.937067,-0.83234 1.598526,-0.83234 0.381714,0 0.67937,0.0523 0.892968,0.15434 z m -2.370228,2.90491 c 0,0.35278 0.09371,0.65455 0.281123,0.904 0.187412,0.25079 0.436837,0.37482 0.749652,0.37482 0.293523,0 0.531923,-0.10749 0.716581,-0.32522 0.183277,-0.21636 0.275606,-0.49333 0.275606,-0.83235 0,-0.36653 -0.08819,-0.65179 -0.264583,-0.85439 -0.173633,-0.20532 -0.418923,-0.30868 -0.738627,-0.30868 -0.301792,0 -0.54846,0.10336 -0.738629,0.30868 -0.187413,0.20673 -0.281123,0.45064 -0.281123,0.73314 z m 0,0"
       style="fill:#000000;fill-opacity:1;fill-rule:nonzero;stroke:none;stroke-width:0.35277775" />
    <path
       inkscape:connector-curvature="0"
       id="path1897"
       d="m 78.609206,183.23588 v 1.5875"
       style="fill:none;stroke:#000000;stroke-width:0.26475194;stroke-linecap:butt;stroke-linejoin:miter;stroke-miterlimit:10;stroke-opacity:0.74901997" />
    <path
       inkscape:connector-curvature="0"
       id="path1899"
       d="m 76.877016,189.14212 c 0,-0.30868 0.0909,-0.59115 0.2756,-0.84885 0.18328,-0.26046 0.4203,-0.44648 0.71107,-0.55672 -0.23151,-0.1323 -0.41617,-0.29905 -0.55122,-0.50162 -0.13642,-0.20531 -0.20394,-0.42718 -0.20394,-0.66696 0,-0.25358 0.0634,-0.48232 0.19292,-0.68905 0.13229,-0.20944 0.31144,-0.37203 0.54019,-0.49057 0.23151,-0.12125 0.48645,-0.18189 0.76619,-0.18189 0.27837,0 0.53468,0.0593 0.76619,0.17639 0.23427,0.1185 0.41617,0.28113 0.5457,0.49057 0.12816,0.20948 0.19293,0.44097 0.19293,0.69455 0,0.23562 -0.0662,0.45611 -0.19844,0.66146 -0.13229,0.20669 -0.31695,0.37482 -0.55121,0.50712 0.28938,0.11437 0.52503,0.30176 0.70555,0.56222 0.17914,0.2577 0.2701,0.53883 0.2701,0.84335 0,0.3018 -0.0717,0.57326 -0.21498,0.8158 -0.14331,0.23978 -0.35002,0.42721 -0.61736,0.56225 -0.26458,0.1323 -0.56499,0.19844 -0.89848,0.19844 -0.33073,0 -0.62838,-0.0661 -0.89297,-0.19844 -0.26458,-0.13504 -0.47129,-0.32247 -0.61736,-0.56225 -0.14745,-0.24254 -0.22048,-0.514 -0.22048,-0.8158 z m 0.66145,-0.0332 c 0,0.31969 0.0965,0.57601 0.29215,0.7662 0.19843,0.18739 0.45888,0.28109 0.78272,0.28109 0.31557,0 0.57327,-0.0951 0.7717,-0.28663 0.2012,-0.19428 0.30317,-0.44785 0.30317,-0.76066 0,-0.29351 -0.10197,-0.54021 -0.30317,-0.73865 -0.20257,-0.20119 -0.46026,-0.30314 -0.7717,-0.30314 -0.31281,0 -0.57051,0.0992 -0.7717,0.29764 -0.20257,0.19568 -0.30317,0.44372 -0.30317,0.74415 z m 0.19293,-2.48599 c 0,0.23978 0.0841,0.4451 0.25356,0.61736 0.17225,0.16951 0.38171,0.25358 0.62838,0.25358 0.2384,0 0.44649,-0.0854 0.62288,-0.25908 0.17638,-0.17227 0.26458,-0.37621 0.26458,-0.61186 0,-0.24254 -0.0854,-0.44648 -0.25356,-0.61186 -0.1695,-0.1681 -0.38034,-0.25354 -0.6339,-0.25354 -0.25356,0 -0.46577,0.0827 -0.63389,0.24804 -0.16537,0.16538 -0.24805,0.37207 -0.24805,0.61736 z m 0,0"
       style="fill:#000000;fill-opacity:1;fill-rule:nonzero;stroke:none;stroke-width:0.35277775" />
    <path
       inkscape:connector-curvature="0"
       id="path1901"
       d="m 104.77402,183.23588 v 1.5875"
       style="fill:none;stroke:#000000;stroke-width:0.26475194;stroke-linecap:butt;stroke-linejoin:miter;stroke-miterlimit:10;stroke-opacity:0.74901997" />
    <path
       inkscape:connector-curvature="0"
       id="path1903"
       d="m 102.59672,190.63042 v -4.56406 c -0.10335,0.10749 -0.28112,0.22598 -0.53468,0.35828 -0.2508,0.12954 -0.48232,0.21911 -0.69453,0.27008 v -0.66146 c 0.27836,-0.0772 0.57878,-0.19981 0.89848,-0.36928 0.32246,-0.17227 0.57051,-0.33348 0.74414,-0.48507 h 0.25907 v 5.45151 z m 0,0"
       style="fill:#000000;fill-opacity:1;fill-rule:nonzero;stroke:none;stroke-width:0.35277775" />
    <path
       inkscape:connector-curvature="0"
       id="path1905"
       d="m 105.08821,188.06727 c 0,-0.93983 0.15572,-1.65089 0.46854,-2.13321 0.31143,-0.48507 0.76343,-0.7276 1.35599,-0.7276 1.13136,0 1.69774,0.91225 1.69774,2.73403 0,0.90124 -0.15985,1.59025 -0.47956,2.06706 -0.31695,0.47403 -0.76343,0.71106 -1.33945,0.71106 -0.54019,0 -0.95912,-0.22599 -1.25677,-0.678 -0.29766,-0.45198 -0.44649,-1.10931 -0.44649,-1.97334 z m 0.68902,-0.0332 c 0,1.41941 0.35967,2.12771 1.08038,2.12771 0.70556,0 1.05834,-0.71935 1.05834,-2.16076 0,-1.49105 -0.34727,-2.23795 -1.0418,-2.23795 -0.73174,0 -1.09692,0.75794 -1.09692,2.271 z m 0,0"
       style="fill:#000000;fill-opacity:1;fill-rule:nonzero;stroke:none;stroke-width:0.35277775" />
    <path
       inkscape:connector-curvature="0"
       id="path1907"
       d="m 130.93745,183.23588 v 1.5875"
       style="fill:none;stroke:#000000;stroke-width:0.26475194;stroke-linecap:butt;stroke-linejoin:miter;stroke-miterlimit:10;stroke-opacity:0.74901997" />
    <path
       inkscape:connector-curvature="0"
       id="path1909"
       d="m 128.76015,190.63042 v -4.56406 c -0.10335,0.10749 -0.28112,0.22598 -0.53468,0.35828 -0.2508,0.12954 -0.48231,0.21911 -0.69453,0.27008 v -0.66146 c 0.27837,-0.0772 0.57878,-0.19981 0.89848,-0.36928 0.32246,-0.17227 0.57051,-0.33348 0.74414,-0.48507 h 0.25907 v 5.45151 z m 0,0"
       style="fill:#000000;fill-opacity:1;fill-rule:nonzero;stroke:none;stroke-width:0.35277775" />
    <path
       inkscape:connector-curvature="0"
       id="path1911"
       d="m 133.87543,186.69472 c 0,-0.28938 -0.0923,-0.51537 -0.27561,-0.67797 -0.18052,-0.16538 -0.42719,-0.24807 -0.73863,-0.24807 -0.22048,0 -0.44372,0.0579 -0.66697,0.17089 -0.22462,0.11024 -0.43408,0.27008 -0.62839,0.47956 v -0.65595 c 0.17226,-0.17914 0.36932,-0.31694 0.58981,-0.41342 0.22324,-0.0951 0.48507,-0.1433 0.78272,-0.1433 0.48094,0 0.86817,0.12954 1.16307,0.38583 0.29352,0.25771 0.44097,0.60636 0.44097,1.04733 0,0.39412 -0.0909,0.73311 -0.27009,1.01974 -0.18053,0.28663 -0.48783,0.58155 -0.92054,0.88194 -0.44923,0.30868 -0.74827,0.52917 -0.89847,0.66146 -0.15159,0.13229 -0.25632,0.26183 -0.3142,0.38587 -0.0593,0.12125 -0.0882,0.26871 -0.0882,0.44097 h 2.65134 v 0.60082 h -3.3569 v -0.26459 c 0,-0.30868 0.0413,-0.56913 0.12678,-0.78274 0.0841,-0.21632 0.22186,-0.4258 0.41341,-0.62837 0.1943,-0.20119 0.4961,-0.44647 0.90399,-0.7331 0.41893,-0.29355 0.7028,-0.55122 0.85439,-0.77171 0.15434,-0.22323 0.23151,-0.47543 0.23151,-0.75519 z m 0,0"
       style="fill:#000000;fill-opacity:1;fill-rule:nonzero;stroke:none;stroke-width:0.35277775" />
    <path
       inkscape:connector-curvature="0"
       id="path1913"
       d="m 157.10089,183.23588 v 1.5875"
       style="fill:none;stroke:#000000;stroke-width:0.26475194;stroke-linecap:butt;stroke-linejoin:miter;stroke-miterlimit:10;stroke-opacity:0.74901997" />
    <path
       inkscape:connector-curvature="0"
       id="path1915"
       d="m 154.92358,190.63042 v -4.56406 c -0.10335,0.10749 -0.28111,0.22598 -0.53467,0.35828 -0.25081,0.12954 -0.48232,0.21911 -0.69453,0.27008 v -0.66146 c 0.27836,-0.0772 0.57877,-0.19981 0.89847,-0.36928 0.32246,-0.17227 0.57051,-0.33348 0.74415,-0.48507 h 0.25907 v 5.45151 z m 0,0"
       style="fill:#000000;fill-opacity:1;fill-rule:nonzero;stroke:none;stroke-width:0.35277775" />
    <path
       inkscape:connector-curvature="0"
       id="path1917"
       d="m 160.30345,185.29465 v 3.52228 h 0.79926 v 0.55672 h -0.79926 v 1.25677 h -0.65044 v -1.25677 h -2.49149 v -0.52367 c 0.44097,-0.49882 0.8847,-1.07487 1.33394,-1.72529 0.44786,-0.65045 0.81718,-1.25952 1.10794,-1.83004 z m -2.38677,3.52228 h 1.73633 v -2.54113 c -0.23978,0.42997 -0.49609,0.84751 -0.7717,1.25127 -0.27285,0.401 -0.59393,0.83097 -0.96463,1.28986 z m 0,0"
       style="fill:#000000;fill-opacity:1;fill-rule:nonzero;stroke:none;stroke-width:0.35277775" />
    <path
       inkscape:connector-curvature="0"
       id="path1919"
       d="m 183.26432,183.23588 v 1.5875"
       style="fill:none;stroke:#000000;stroke-width:0.26475194;stroke-linecap:butt;stroke-linejoin:miter;stroke-miterlimit:10;stroke-opacity:0.74901997" />
    <path
       inkscape:connector-curvature="0"
       id="path1921"
       d="m 181.08839,190.63042 v -4.56406 c -0.10335,0.10749 -0.28112,0.22598 -0.53468,0.35828 -0.2508,0.12954 -0.48231,0.21911 -0.69453,0.27008 v -0.66146 c 0.27837,-0.0772 0.57878,-0.19981 0.89849,-0.36928 0.32246,-0.17227 0.5705,-0.33348 0.74413,-0.48507 h 0.25908 v 5.45151 z m 0,0"
       style="fill:#000000;fill-opacity:1;fill-rule:nonzero;stroke:none;stroke-width:0.35277775" />
    <path
       inkscape:connector-curvature="0"
       id="path1923"
       d="m 186.77005,185.97816 c -0.27561,-0.14333 -0.56638,-0.21498 -0.87092,-0.21498 -0.46027,0 -0.83096,0.20256 -1.11346,0.60635 -0.27974,0.40101 -0.42168,0.95084 -0.42443,1.64811 h 0.0165 c 0.25356,-0.49195 0.65595,-0.73861 1.20716,-0.73861 0.46302,0 0.83234,0.15159 1.10795,0.45198 0.2756,0.3018 0.4134,0.7028 0.4134,1.20166 0,0.52229 -0.15985,0.95085 -0.47955,1.28433 -0.31695,0.33485 -0.7221,0.50161 -1.21819,0.50161 -0.54019,0 -0.96462,-0.21085 -1.2733,-0.6339 -0.30868,-0.42168 -0.46302,-1.0225 -0.46302,-1.80249 0,-0.94393 0.20119,-1.6922 0.60633,-2.24342 0.40377,-0.55396 0.93707,-0.83234 1.59853,-0.83234 0.38171,0 0.67937,0.0523 0.89296,0.15434 z m -2.37023,2.90491 c 0,0.35278 0.0937,0.65455 0.28112,0.904 0.18741,0.25079 0.43684,0.37482 0.74965,0.37482 0.29352,0 0.53193,-0.10749 0.71658,-0.32522 0.18328,-0.21636 0.27561,-0.49333 0.27561,-0.83235 0,-0.36653 -0.0882,-0.65179 -0.26458,-0.85439 -0.17364,-0.20532 -0.41893,-0.30868 -0.73863,-0.30868 -0.30179,0 -0.54846,0.10336 -0.73863,0.30868 -0.18742,0.20673 -0.28112,0.45064 -0.28112,0.73314 z m 0,0"
       style="fill:#000000;fill-opacity:1;fill-rule:nonzero;stroke:none;stroke-width:0.35277775" />
    <path
       inkscape:connector-curvature="0"
       id="path1925"
       d="m 209.42913,183.23588 v 1.5875"
       style="fill:none;stroke:#000000;stroke-width:0.26475194;stroke-linecap:butt;stroke-linejoin:miter;stroke-miterlimit:10;stroke-opacity:0.74901997" />
    <path
       inkscape:connector-curvature="0"
       id="path1927"
       d="m 207.25183,190.63042 v -4.56406 c -0.10336,0.10749 -0.28112,0.22598 -0.53468,0.35828 -0.25081,0.12954 -0.48232,0.21911 -0.69453,0.27008 v -0.66146 c 0.27836,-0.0772 0.57877,-0.19981 0.89848,-0.36928 0.32246,-0.17227 0.5705,-0.33348 0.74414,-0.48507 h 0.25907 v 5.45151 z m 0,0"
       style="fill:#000000;fill-opacity:1;fill-rule:nonzero;stroke:none;stroke-width:0.35277775" />
    <path
       inkscape:connector-curvature="0"
       id="path1929"
       d="m 209.76537,189.14212 c 0,-0.30868 0.0909,-0.59115 0.27561,-0.84885 0.18327,-0.26046 0.4203,-0.44648 0.71106,-0.55672 -0.23151,-0.1323 -0.41616,-0.29905 -0.55121,-0.50162 -0.13643,-0.20531 -0.20395,-0.42718 -0.20395,-0.66696 0,-0.25358 0.0634,-0.48232 0.19292,-0.68905 0.1323,-0.20944 0.31144,-0.37203 0.5402,-0.49057 0.23151,-0.12125 0.48644,-0.18189 0.76618,-0.18189 0.27837,0 0.53469,0.0593 0.7662,0.17639 0.23426,0.1185 0.41616,0.28113 0.5457,0.49057 0.12815,0.20948 0.19292,0.44097 0.19292,0.69455 0,0.23562 -0.0661,0.45611 -0.19844,0.66146 -0.13229,0.20669 -0.31694,0.37482 -0.55121,0.50712 0.28939,0.11437 0.52503,0.30176 0.70556,0.56222 0.17914,0.2577 0.27009,0.53883 0.27009,0.84335 0,0.3018 -0.0717,0.57326 -0.21497,0.8158 -0.14332,0.23978 -0.35002,0.42721 -0.61736,0.56225 -0.26459,0.1323 -0.565,0.19844 -0.89849,0.19844 -0.33072,0 -0.62838,-0.0661 -0.89296,-0.19844 -0.26459,-0.13504 -0.4713,-0.32247 -0.61737,-0.56225 -0.14745,-0.24254 -0.22048,-0.514 -0.22048,-0.8158 z m 0.66146,-0.0332 c 0,0.31969 0.0965,0.57601 0.29214,0.7662 0.19844,0.18739 0.45889,0.28109 0.78273,0.28109 0.31557,0 0.57326,-0.0951 0.7717,-0.28663 0.20119,-0.19428 0.30317,-0.44785 0.30317,-0.76066 0,-0.29351 -0.10198,-0.54021 -0.30317,-0.73865 -0.20257,-0.20119 -0.46027,-0.30314 -0.7717,-0.30314 -0.31282,0 -0.57051,0.0992 -0.7717,0.29764 -0.20258,0.19568 -0.30317,0.44372 -0.30317,0.74415 z m 0.19292,-2.48599 c 0,0.23978 0.0841,0.4451 0.25356,0.61736 0.17226,0.16951 0.38172,0.25358 0.62839,0.25358 0.2384,0 0.44648,-0.0854 0.62287,-0.25908 0.17639,-0.17227 0.26458,-0.37621 0.26458,-0.61186 0,-0.24254 -0.0854,-0.44648 -0.25356,-0.61186 -0.16949,-0.1681 -0.38033,-0.25354 -0.63389,-0.25354 -0.25356,0 -0.46578,0.0827 -0.6339,0.24804 -0.16537,0.16538 -0.24805,0.37207 -0.24805,0.61736 z m 0,0"
       style="fill:#000000;fill-opacity:1;fill-rule:nonzero;stroke:none;stroke-width:0.35277775" />
    <path
       inkscape:connector-curvature="0"
       id="path1931"
       d="m -14.683978,183.36817 h 1.721168 V 64.229865 h -1.721168"
       style="fill:none;stroke:#000000;stroke-width:0.26475194;stroke-linecap:butt;stroke-linejoin:miter;stroke-miterlimit:10;stroke-opacity:0.74901997" />
    <path
       inkscape:connector-curvature="0"
       id="path1933"
       d="m -13.095102,183.36817 h -1.588876"
       style="fill:none;stroke:#000000;stroke-width:0.26475194;stroke-linecap:butt;stroke-linejoin:miter;stroke-miterlimit:10;stroke-opacity:0.74901997" />
    <path
       inkscape:connector-curvature="0"
       id="path1935"
       d="m -25.14191,183.06362 c 0,-0.93984 0.155718,-1.6509 0.468532,-2.13321 0.311437,-0.48507 0.763434,-0.72761 1.35599,-0.72761 1.131369,0 1.697743,0.91225 1.697743,2.73403 0,0.90124 -0.159852,1.59025 -0.479557,2.06706 -0.316949,0.47403 -0.763433,0.71106 -1.339453,0.71106 -0.540191,0 -0.959115,-0.22599 -1.256771,-0.678 -0.297656,-0.45198 -0.446484,-1.10931 -0.446484,-1.97333 z m 0.689019,-0.0332 c 0,1.4194 0.359667,2.1277 1.080382,2.1277 0.705555,0 1.058333,-0.71934 1.058333,-2.16076 0,-1.49105 -0.347266,-2.23795 -1.041797,-2.23795 -0.731738,0 -1.096918,0.75794 -1.096918,2.27101 z m 0,0"
       style="fill:#000000;fill-opacity:1;fill-rule:nonzero;stroke:none;stroke-width:0.35277775" />
    <path
       inkscape:connector-curvature="0"
       id="path1937"
       d="m -20.908577,185.27398 c 0,-0.12404 0.04134,-0.22874 0.126779,-0.31418 0.08819,-0.0841 0.194304,-0.12679 0.319705,-0.12679 0.128158,0 0.234267,0.0427 0.319705,0.12679 0.08406,0.0854 0.126779,0.19014 0.126779,0.31418 0,0.1185 -0.04272,0.22049 -0.126779,0.30868 -0.08544,0.0841 -0.192925,0.12679 -0.325217,0.12679 -0.125401,0 -0.230133,-0.0427 -0.314193,-0.12679 -0.08544,-0.0882 -0.126779,-0.19018 -0.126779,-0.30868 z m 0,0"
       style="fill:#000000;fill-opacity:1;fill-rule:nonzero;stroke:none;stroke-width:0.35277775" />
    <path
       inkscape:connector-curvature="0"
       id="path1939"
       d="m -19.126774,184.73377 c 0.366558,0.28388 0.77997,0.42446 1.240234,0.42446 0.366559,0 0.657325,-0.0896 0.87092,-0.27012 0.216353,-0.17914 0.325218,-0.42167 0.325218,-0.7276 0,-0.67247 -0.483692,-1.0087 -1.449697,-1.0087 h -0.446484 v -0.56225 h 0.424436 c 0.855762,0 1.284332,-0.31557 1.284332,-0.9481 0,-0.58702 -0.327974,-0.88194 -0.981163,-0.88194 -0.374827,0 -0.727605,0.12679 -1.058334,0.38033 v -0.63387 c 0.348644,-0.20119 0.756543,-0.30318 1.223698,-0.30318 0.454752,0 0.82131,0.11987 1.096918,0.35828 0.275608,0.23566 0.413412,0.54296 0.413412,0.92054 0,0.69868 -0.356912,1.14653 -1.069358,1.34497 v 0.0166 c 0.385851,0.0413 0.690397,0.17639 0.915018,0.40789 0.223242,0.23153 0.336241,0.52091 0.336241,0.8654 0,0.47818 -0.173633,0.86405 -0.518143,1.15756 -0.345887,0.29489 -0.80753,0.44098 -1.38355,0.44098 -0.504362,0 -0.912261,-0.0937 -1.223698,-0.28113 z m 0,0"
       style="fill:#000000;fill-opacity:1;fill-rule:nonzero;stroke:none;stroke-width:0.35277775" />
    <path
       inkscape:connector-curvature="0"
       id="path1941"
       d="m -13.095102,166.34802 h -1.588876"
       style="fill:none;stroke:#000000;stroke-width:0.26475194;stroke-linecap:butt;stroke-linejoin:miter;stroke-miterlimit:10;stroke-opacity:0.74901997" />
    <path
       inkscape:connector-curvature="0"
       id="path1943"
       d="m -25.14191,166.04347 c 0,-0.93984 0.155718,-1.6509 0.468532,-2.13322 0.311437,-0.48507 0.763434,-0.7276 1.35599,-0.7276 1.131369,0 1.697743,0.91225 1.697743,2.73403 0,0.90124 -0.159852,1.59025 -0.479557,2.06706 -0.316949,0.47403 -0.763433,0.71106 -1.339453,0.71106 -0.540191,0 -0.959115,-0.22599 -1.256771,-0.678 -0.297656,-0.45198 -0.446484,-1.10931 -0.446484,-1.97333 z m 0.689019,-0.0332 c 0,1.41941 0.359667,2.12771 1.080382,2.12771 0.705555,0 1.058333,-0.71935 1.058333,-2.16076 0,-1.49105 -0.347266,-2.23795 -1.041797,-2.23795 -0.731738,0 -1.096918,0.75794 -1.096918,2.271 z m 0,0"
       style="fill:#000000;fill-opacity:1;fill-rule:nonzero;stroke:none;stroke-width:0.35277775" />
    <path
       inkscape:connector-curvature="0"
       id="path1945"
       d="m -20.908577,168.25383 c 0,-0.12404 0.04134,-0.22874 0.126779,-0.31418 0.08819,-0.0841 0.194304,-0.12679 0.319705,-0.12679 0.128158,0 0.234267,0.0427 0.319705,0.12679 0.08406,0.0854 0.126779,0.19014 0.126779,0.31418 0,0.1185 -0.04272,0.22049 -0.126779,0.30868 -0.08544,0.0841 -0.192925,0.12679 -0.325217,0.12679 -0.125401,0 -0.230133,-0.0427 -0.314193,-0.12679 -0.08544,-0.0882 -0.126779,-0.19018 -0.126779,-0.30868 z m 0,0"
       style="fill:#000000;fill-opacity:1;fill-rule:nonzero;stroke:none;stroke-width:0.35277775" />
    <path
       inkscape:connector-curvature="0"
       id="path1947"
       d="m -16.414795,163.27084 v 3.52228 h 0.799262 v 0.55672 h -0.799262 v 1.25677 h -0.650433 v -1.25677 h -2.491494 v -0.52367 c 0.440973,-0.49882 0.884701,-1.07484 1.333941,-1.72529 0.447863,-0.65042 0.817177,-1.25952 1.107943,-1.83004 z m -2.386762,3.52228 h 1.736329 v -2.54109 c -0.239779,0.42992 -0.496094,0.84747 -0.771702,1.25123 -0.272852,0.401 -0.593934,0.83096 -0.964627,1.28986 z m 0,0"
       style="fill:#000000;fill-opacity:1;fill-rule:nonzero;stroke:none;stroke-width:0.35277775" />
    <path
       inkscape:connector-curvature="0"
       id="path1949"
       d="m -13.095102,149.32787 h -1.588876"
       style="fill:none;stroke:#000000;stroke-width:0.26475194;stroke-linecap:butt;stroke-linejoin:miter;stroke-miterlimit:10;stroke-opacity:0.74901997" />
    <path
       inkscape:connector-curvature="0"
       id="path1951"
       d="m -25.14191,149.02469 c 0,-0.93983 0.155718,-1.65089 0.468532,-2.13321 0.311437,-0.48507 0.763434,-0.7276 1.35599,-0.7276 1.131369,0 1.697743,0.91228 1.697743,2.73403 0,0.90124 -0.159852,1.59025 -0.479557,2.06706 -0.316949,0.47403 -0.763433,0.71106 -1.339453,0.71106 -0.540191,0 -0.959115,-0.22599 -1.256771,-0.678 -0.297656,-0.45198 -0.446484,-1.10931 -0.446484,-1.97334 z m 0.689019,-0.0332 c 0,1.41941 0.359667,2.12771 1.080382,2.12771 0.705555,0 1.058333,-0.71935 1.058333,-2.16076 0,-1.49105 -0.347266,-2.23795 -1.041797,-2.23795 -0.731738,0 -1.096918,0.75794 -1.096918,2.271 z m 0,0"
       style="fill:#000000;fill-opacity:1;fill-rule:nonzero;stroke:none;stroke-width:0.35277775" />
    <path
       inkscape:connector-curvature="0"
       id="path1953"
       d="m -20.908577,151.23506 c 0,-0.124 0.04134,-0.22874 0.126779,-0.31419 0.08819,-0.0841 0.194304,-0.12678 0.319705,-0.12678 0.128158,0 0.234267,0.0427 0.319705,0.12678 0.08406,0.0854 0.126779,0.19019 0.126779,0.31419 0,0.11853 -0.04272,0.22048 -0.126779,0.30868 -0.08544,0.0841 -0.192925,0.12679 -0.325217,0.12679 -0.125401,0 -0.230133,-0.0427 -0.314193,-0.12679 -0.08544,-0.0882 -0.126779,-0.19015 -0.126779,-0.30868 z m 0,0"
       style="fill:#000000;fill-opacity:1;fill-rule:nonzero;stroke:none;stroke-width:0.35277775" />
    <path
       inkscape:connector-curvature="0"
       id="path1955"
       d="m -15.984847,149.93969 c 0,0.52229 -0.173633,0.94259 -0.518142,1.26231 -0.345888,0.31969 -0.810287,0.47953 -1.394575,0.47953 -0.500228,0 -0.873676,-0.0758 -1.118967,-0.22599 v -0.68901 c 0.359668,0.23566 0.727605,0.35278 1.102431,0.35278 0.370692,0 0.669726,-0.10199 0.89848,-0.30868 0.227377,-0.20532 0.341754,-0.47681 0.341754,-0.8158 0,-0.34177 -0.119889,-0.60635 -0.35829,-0.79375 -0.235644,-0.19018 -0.570508,-0.28663 -1.003211,-0.28663 -0.334864,0 -0.636654,0.0152 -0.903993,0.0441 l 0.192925,-2.70648 h 2.497005 v 0.58981 h -1.929254 l -0.110242,1.51585 0.485069,-0.0219 c 0.564995,0 1.010102,0.14193 1.333941,0.42443 0.322461,0.27976 0.485069,0.67247 0.485069,1.17958 z m 0,0"
       style="fill:#000000;fill-opacity:1;fill-rule:nonzero;stroke:none;stroke-width:0.35277775" />
    <path
       inkscape:connector-curvature="0"
       id="path1957"
       d="m -13.095102,132.30772 h -1.588876"
       style="fill:none;stroke:#000000;stroke-width:0.26475194;stroke-linecap:butt;stroke-linejoin:miter;stroke-miterlimit:10;stroke-opacity:0.74901997" />
    <path
       inkscape:connector-curvature="0"
       id="path1959"
       d="m -25.14191,132.00454 c 0,-0.93983 0.155718,-1.65089 0.468532,-2.13321 0.311437,-0.48507 0.763434,-0.7276 1.35599,-0.7276 1.131369,0 1.697743,0.91228 1.697743,2.73402 0,0.90124 -0.159852,1.59025 -0.479557,2.06707 -0.316949,0.47403 -0.763433,0.71106 -1.339453,0.71106 -0.540191,0 -0.959115,-0.22599 -1.256771,-0.67801 -0.297656,-0.45197 -0.446484,-1.10931 -0.446484,-1.97333 z m 0.689019,-0.0332 c 0,1.4194 0.359667,2.12771 1.080382,2.12771 0.705555,0 1.058333,-0.71935 1.058333,-2.16076 0,-1.49106 -0.347266,-2.23796 -1.041797,-2.23796 -0.731738,0 -1.096918,0.75795 -1.096918,2.27101 z m 0,0"
       style="fill:#000000;fill-opacity:1;fill-rule:nonzero;stroke:none;stroke-width:0.35277775" />
    <path
       inkscape:connector-curvature="0"
       id="path1961"
       d="m -20.908577,134.21491 c 0,-0.12401 0.04134,-0.22875 0.126779,-0.31419 0.08819,-0.0841 0.194304,-0.12679 0.319705,-0.12679 0.128158,0 0.234267,0.0427 0.319705,0.12679 0.08406,0.0854 0.126779,0.19018 0.126779,0.31419 0,0.11853 -0.04272,0.22048 -0.126779,0.30868 -0.08544,0.0841 -0.192925,0.12678 -0.325217,0.12678 -0.125401,0 -0.230133,-0.0427 -0.314193,-0.12678 -0.08544,-0.0882 -0.126779,-0.19015 -0.126779,-0.30868 z m 0,0"
       style="fill:#000000;fill-opacity:1;fill-rule:nonzero;stroke:none;stroke-width:0.35277775" />
    <path
       inkscape:connector-curvature="0"
       id="path1963"
       d="m -16.111626,129.91543 c -0.275608,-0.1433 -0.566374,-0.21499 -0.870921,-0.21499 -0.460264,0 -0.830956,0.20261 -1.113454,0.60636 -0.279742,0.401 -0.42168,0.95084 -0.424436,1.64814 h 0.01653 c 0.253559,-0.49198 0.655947,-0.73865 1.207162,-0.73865 0.463021,0 0.832334,0.15159 1.107942,0.45202 0.275608,0.30177 0.413412,0.7028 0.413412,1.20163 0,0.52229 -0.159853,0.95084 -0.479558,1.28432 -0.316948,0.3349 -0.722091,0.50162 -1.218185,0.50162 -0.540191,0 -0.964627,-0.21082 -1.273308,-0.63391 -0.30868,-0.42167 -0.46302,-1.02249 -0.46302,-1.80244 0,-0.94397 0.201193,-1.69225 0.606336,-2.24346 0.403766,-0.55397 0.937066,-0.83234 1.598525,-0.83234 0.381716,0 0.679373,0.0524 0.892968,0.15434 z m -2.370226,2.90491 c 0,0.35278 0.09371,0.65458 0.28112,0.90399 0.187413,0.25079 0.436838,0.37483 0.749653,0.37483 0.293522,0 0.531922,-0.10749 0.71658,-0.32523 0.183279,-0.21635 0.275607,-0.49332 0.275607,-0.83234 0,-0.36654 -0.08819,-0.65179 -0.264583,-0.85436 -0.173633,-0.20535 -0.418924,-0.30868 -0.738628,-0.30868 -0.301791,0 -0.54846,0.10333 -0.738629,0.30868 -0.187413,0.2067 -0.28112,0.45061 -0.28112,0.73311 z m 0,0"
       style="fill:#000000;fill-opacity:1;fill-rule:nonzero;stroke:none;stroke-width:0.35277775" />
    <path
       inkscape:connector-curvature="0"
       id="path1965"
       d="m -13.095102,115.28894 h -1.588876"
       style="fill:none;stroke:#000000;stroke-width:0.26475194;stroke-linecap:butt;stroke-linejoin:miter;stroke-miterlimit:10;stroke-opacity:0.74901997" />
    <path
       inkscape:connector-curvature="0"
       id="path1967"
       d="m -25.14191,114.98439 c 0,-0.93983 0.155718,-1.65089 0.468532,-2.13321 0.311437,-0.48507 0.763434,-0.72761 1.35599,-0.72761 1.131369,0 1.697743,0.91229 1.697743,2.73403 0,0.90124 -0.159852,1.59025 -0.479557,2.06707 -0.316949,0.47406 -0.763433,0.71106 -1.339453,0.71106 -0.540191,0 -0.959115,-0.22599 -1.256771,-0.67797 -0.297656,-0.45202 -0.446484,-1.10935 -0.446484,-1.97337 z m 0.689019,-0.0332 c 0,1.41936 0.359667,2.12767 1.080382,2.12767 0.705555,0 1.058333,-0.71935 1.058333,-2.16076 0,-1.49105 -0.347266,-2.23792 -1.041797,-2.23792 -0.731738,0 -1.096918,0.75791 -1.096918,2.27101 z m 0,0"
       style="fill:#000000;fill-opacity:1;fill-rule:nonzero;stroke:none;stroke-width:0.35277775" />
    <path
       inkscape:connector-curvature="0"
       id="path1969"
       d="m -20.908577,117.19475 c 0,-0.124 0.04134,-0.22874 0.126779,-0.31418 0.08819,-0.0841 0.194304,-0.12679 0.319705,-0.12679 0.128158,0 0.234267,0.0427 0.319705,0.12679 0.08406,0.0854 0.126779,0.19018 0.126779,0.31418 0,0.11854 -0.04272,0.22049 -0.126779,0.30868 -0.08544,0.0841 -0.192925,0.12679 -0.325217,0.12679 -0.125401,0 -0.230133,-0.0427 -0.314193,-0.12679 -0.08544,-0.0882 -0.126779,-0.19014 -0.126779,-0.30868 z m 0,0"
       style="fill:#000000;fill-opacity:1;fill-rule:nonzero;stroke:none;stroke-width:0.35277775" />
    <path
       inkscape:connector-curvature="0"
       id="path1971"
       d="m -15.847043,112.62519 c -0.559484,0.98118 -0.997699,1.8893 -1.317404,2.72302 -0.319705,0.83093 -0.518143,1.56404 -0.595313,2.19932 h -0.705555 c 0.08819,-0.62837 0.289387,-1.34221 0.606337,-2.14422 0.31557,-0.80475 0.738628,-1.67019 1.267794,-2.59623 h -2.645833 v -0.59531 h 3.389974 z m 0,0"
       style="fill:#000000;fill-opacity:1;fill-rule:nonzero;stroke:none;stroke-width:0.35277775" />
    <path
       inkscape:connector-curvature="0"
       id="path1973"
       d="m -13.095102,98.268793 h -1.588876"
       style="fill:none;stroke:#000000;stroke-width:0.26475194;stroke-linecap:butt;stroke-linejoin:miter;stroke-miterlimit:10;stroke-opacity:0.74901997" />
    <path
       inkscape:connector-curvature="0"
       id="path1975"
       d="m -25.14191,97.964239 c 0,-0.939834 0.155718,-1.650894 0.468532,-2.133211 0.311437,-0.485071 0.763434,-0.727604 1.35599,-0.727604 1.131369,0 1.697743,0.912283 1.697743,2.734027 0,0.901242 -0.159852,1.590252 -0.479557,2.067065 -0.316949,0.474064 -0.763433,0.711064 -1.339453,0.711064 -0.540191,0 -0.959115,-0.22599 -1.256771,-0.677972 -0.297656,-0.452015 -0.446484,-1.109345 -0.446484,-1.973369 z m 0.689019,-0.03316 c 0,1.419365 0.359667,2.127671 1.080382,2.127671 0.705555,0 1.058333,-0.719347 1.058333,-2.160762 0,-1.491052 -0.347266,-2.237918 -1.041797,-2.237918 -0.731738,0 -1.096918,0.75791 -1.096918,2.271009 z m 0,0"
       style="fill:#000000;fill-opacity:1;fill-rule:nonzero;stroke:none;stroke-width:0.35277775" />
    <path
       inkscape:connector-curvature="0"
       id="path1977"
       d="m -20.908577,100.1746 c 0,-0.124 0.04134,-0.228737 0.126779,-0.314179 0.08819,-0.08407 0.194304,-0.126789 0.319705,-0.126789 0.128158,0 0.234267,0.04272 0.319705,0.126789 0.08406,0.08544 0.126779,0.190179 0.126779,0.314179 0,0.11854 -0.04272,0.22049 -0.126779,0.30868 -0.08544,0.0841 -0.192925,0.12679 -0.325217,0.12679 -0.125401,0 -0.230133,-0.0427 -0.314193,-0.12679 -0.08544,-0.0882 -0.126779,-0.19014 -0.126779,-0.30868 z m 0,0"
       style="fill:#000000;fill-opacity:1;fill-rule:nonzero;stroke:none;stroke-width:0.35277775" />
    <path
       inkscape:connector-curvature="0"
       id="path1979"
       d="m -19.281114,99.039117 c 0,-0.308679 0.09095,-0.591185 0.275608,-0.848889 0.183279,-0.260419 0.420301,-0.446474 0.711067,-0.556718 -0.23151,-0.132292 -0.416167,-0.299014 -0.551215,-0.501616 -0.136426,-0.205316 -0.203949,-0.427177 -0.203949,-0.666961 0,-0.25354 0.06339,-0.482317 0.192924,-0.68901 0.132292,-0.209478 0.311437,-0.372075 0.540191,-0.490572 0.231511,-0.121285 0.486448,-0.181927 0.76619,-0.181927 0.278364,0 0.534678,0.05927 0.766189,0.176387 0.234267,0.118533 0.416168,0.28113 0.545703,0.490609 0.128158,0.209444 0.192925,0.440973 0.192925,0.694513 0,0.235656 -0.06614,0.456141 -0.198437,0.661458 -0.132292,0.206693 -0.316949,0.374827 -0.551215,0.507119 0.289388,0.114371 0.525032,0.301802 0.705555,0.562258 0.179145,0.257667 0.270096,0.538798 0.270096,0.843349 0,0.301802 -0.07166,0.573265 -0.214974,0.8158 -0.143316,0.239783 -0.350022,0.427173 -0.617362,0.562223 -0.264583,0.13229 -0.564995,0.19844 -0.89848,0.19844 -0.330729,0 -0.628386,-0.0661 -0.892969,-0.19844 -0.264583,-0.13505 -0.471289,-0.32244 -0.617361,-0.562223 -0.14745,-0.242535 -0.220486,-0.513998 -0.220486,-0.8158 z m 0.661458,-0.03316 c 0,0.319722 0.09646,0.576016 0.292144,0.766199 0.198438,0.18743 0.458887,0.281124 0.782726,0.281124 0.315571,0 0.573264,-0.09507 0.771701,-0.286628 0.201194,-0.19431 0.303169,-0.447852 0.303169,-0.760695 0,-0.293511 -0.101975,-0.540174 -0.303169,-0.738611 -0.202571,-0.201189 -0.460264,-0.303178 -0.771701,-0.303178 -0.312815,0 -0.570508,0.09924 -0.771702,0.297675 -0.202571,0.195651 -0.303168,0.443724 -0.303168,0.744114 z m 0.192925,-2.485954 c 0,0.239747 0.08406,0.445098 0.253559,0.61736 0.172255,0.169474 0.381717,0.253543 0.628386,0.253543 0.238401,0 0.446485,-0.08544 0.622873,-0.25908 0.176389,-0.172228 0.264584,-0.376203 0.264584,-0.611823 0,-0.242535 -0.08544,-0.446511 -0.253559,-0.611859 -0.169499,-0.168133 -0.380339,-0.253577 -0.633898,-0.253577 -0.253559,0 -0.465777,0.08269 -0.633898,0.248073 -0.165364,0.165349 -0.248047,0.372041 -0.248047,0.617363 z m 0,0"
       style="fill:#000000;fill-opacity:1;fill-rule:nonzero;stroke:none;stroke-width:0.35277775" />
    <path
       inkscape:connector-curvature="0"
       id="path1981"
       d="m -13.095102,81.248641 h -1.588876"
       style="fill:none;stroke:#000000;stroke-width:0.26475194;stroke-linecap:butt;stroke-linejoin:miter;stroke-miterlimit:10;stroke-opacity:0.74901997" />
    <path
       inkscape:connector-curvature="0"
       id="path1983"
       d="m -25.14191,80.945463 c 0,-0.9398 0.155718,-1.650894 0.468532,-2.133211 0.311437,-0.48507 0.763434,-0.727605 1.35599,-0.727605 1.131369,0 1.697743,0.912284 1.697743,2.734028 0,0.901242 -0.159852,1.590287 -0.479557,2.067066 -0.316949,0.474063 -0.763433,0.711059 -1.339453,0.711059 -0.540191,0 -0.959115,-0.225989 -1.256771,-0.677968 -0.297656,-0.452014 -0.446484,-1.109345 -0.446484,-1.973369 z m 0.689019,-0.03316 c 0,1.419366 0.359667,2.127674 1.080382,2.127674 0.705555,0 1.058333,-0.719314 1.058333,-2.160764 0,-1.491015 -0.347266,-2.237916 -1.041797,-2.237916 -0.731738,0 -1.096918,0.757907 -1.096918,2.271006 z m 0,0"
       style="fill:#000000;fill-opacity:1;fill-rule:nonzero;stroke:none;stroke-width:0.35277775" />
    <path
       inkscape:connector-curvature="0"
       id="path1985"
       d="m -20.908577,83.155828 c 0,-0.124001 0.04134,-0.228741 0.126779,-0.314184 0.08819,-0.08407 0.194304,-0.126788 0.319705,-0.126788 0.128158,0 0.234267,0.04272 0.319705,0.126788 0.08406,0.08544 0.126779,0.190183 0.126779,0.314184 0,0.118533 -0.04272,0.220486 -0.126779,0.30868 -0.08544,0.08407 -0.192925,0.126789 -0.325217,0.126789 -0.125401,0 -0.230133,-0.04272 -0.314193,-0.126789 -0.08544,-0.08819 -0.126779,-0.190147 -0.126779,-0.30868 z m 0,0"
       style="fill:#000000;fill-opacity:1;fill-rule:nonzero;stroke:none;stroke-width:0.35277775" />
    <path
       inkscape:connector-curvature="0"
       id="path1987"
       d="m -18.977946,82.78654 c 0.293523,0.169474 0.609093,0.253542 0.94809,0.253542 0.476802,0 0.846116,-0.187396 1.107943,-0.562223 0.264584,-0.377577 0.396875,-0.915035 0.396875,-1.609548 -0.0041,0.0042 -0.0083,0.0042 -0.01103,0 -0.235645,0.4451 -0.631142,0.666962 -1.185113,0.666962 -0.445106,0 -0.81442,-0.151589 -1.107943,-0.457518 -0.2949,-0.308681 -0.440972,-0.708307 -0.440972,-1.201632 0,-0.520911 0.159852,-0.949466 0.479557,-1.284357 0.322461,-0.337609 0.740007,-0.507119 1.251259,-0.507119 0.529167,0 0.942578,0.208104 1.240234,0.6229 0.300413,0.416172 0.451997,1.022491 0.451997,1.818993 0,0.985308 -0.192925,1.744592 -0.578776,2.27651 -0.385851,0.529167 -0.92053,0.79375 -1.604037,0.79375 -0.374826,0 -0.691775,-0.06061 -0.94809,-0.181892 z m 0.385851,-2.993108 c 0,0.356906 0.09095,0.63941 0.275607,0.848854 0.18328,0.20948 0.436839,0.314219 0.760678,0.314219 0.282498,0 0.518142,-0.09511 0.705555,-0.286632 0.190169,-0.190182 0.286632,-0.421675 0.286632,-0.694548 0,-0.385833 -0.09646,-0.702804 -0.286632,-0.953594 -0.187413,-0.253577 -0.43546,-0.38033 -0.74414,-0.38033 -0.286632,0 -0.526411,0.110243 -0.71658,0.33073 -0.187413,0.217734 -0.28112,0.490572 -0.28112,0.821301 z m 0,0"
       style="fill:#000000;fill-opacity:1;fill-rule:nonzero;stroke:none;stroke-width:0.35277775" />
    <path
       inkscape:connector-curvature="0"
       id="path1989"
       d="m -13.095102,64.229865 h -1.588876"
       style="fill:none;stroke:#000000;stroke-width:0.26475194;stroke-linecap:butt;stroke-linejoin:miter;stroke-miterlimit:10;stroke-opacity:0.74901997" />
    <path
       inkscape:connector-curvature="0"
       id="path1991"
       d="m -23.493777,66.488489 v -4.564098 c -0.103353,0.107492 -0.28112,0.226025 -0.534679,0.358317 -0.250802,0.12954 -0.482313,0.21911 -0.694531,0.270086 v -0.661458 c 0.278364,-0.07719 0.578776,-0.199813 0.898481,-0.369323 0.322461,-0.172261 0.570508,-0.333481 0.744141,-0.485069 h 0.259071 v 5.451545 z m 0,0"
       style="fill:#000000;fill-opacity:1;fill-rule:nonzero;stroke:none;stroke-width:0.35277775" />
    <path
       inkscape:connector-curvature="0"
       id="path1993"
       d="m -20.908577,66.135711 c 0,-0.124036 0.04134,-0.228776 0.126779,-0.314219 0.08819,-0.08407 0.194304,-0.126788 0.319705,-0.126788 0.128158,0 0.234267,0.04272 0.319705,0.126788 0.08406,0.08544 0.126779,0.190183 0.126779,0.314219 0,0.118498 -0.04272,0.220486 -0.126779,0.308681 -0.08544,0.08403 -0.192925,0.126753 -0.325217,0.126753 -0.125401,0 -0.230133,-0.04272 -0.314193,-0.126753 -0.08544,-0.08819 -0.126779,-0.190183 -0.126779,-0.308681 z m 0,0"
       style="fill:#000000;fill-opacity:1;fill-rule:nonzero;stroke:none;stroke-width:0.35277775" />
    <path
       inkscape:connector-curvature="0"
       id="path1995"
       d="m -19.303162,63.925311 c 0,-0.939799 0.155718,-1.650894 0.468532,-2.133211 0.311437,-0.48507 0.763433,-0.727604 1.35599,-0.727604 1.131369,0 1.697743,0.912283 1.697743,2.734027 0,0.901242 -0.159852,1.590287 -0.479557,2.067066 -0.316949,0.474063 -0.763434,0.711094 -1.339454,0.711094 -0.540191,0 -0.959114,-0.226024 -1.256771,-0.678003 -0.297656,-0.452014 -0.446483,-1.109345 -0.446483,-1.973369 z m 0.689018,-0.03316 c 0,1.419366 0.359668,2.127674 1.080382,2.127674 0.705556,0 1.058333,-0.719314 1.058333,-2.160764 0,-1.491015 -0.347265,-2.237916 -1.041796,-2.237916 -0.731738,0 -1.096919,0.757907 -1.096919,2.271006 z m 0,0"
       style="fill:#000000;fill-opacity:1;fill-rule:nonzero;stroke:none;stroke-width:0.35277775" />
    <path
       inkscape:connector-curvature="0"
       id="path2031"
       d="M -13.095102,149.19558 -0.01338681,68.920715"
       style="fill:#ff6363;fill-opacity:0.4;fill-rule:nonzero;stroke:none;stroke-width:0.35277775" />
    <path
       inkscape:connector-curvature="0"
       id="path2033"
       d="m -13.095102,140.68619 13.08171519,2.16352 13.08171981,6.31278 13.081717,-10.59572 13.081714,-17.84149 13.081717,-24.077078 13.081715,1.82178 13.08172,-4.07349 13.08309,28.459248 13.081724,-18.52771 13.08171,-15.053694 13.08172,3.343132 13.08171,-15.654513 13.08172,22.875415 13.08172,11.9145 13.08172,-37.444038 v 3.403776 l -13.08172,45.953432 -13.08172,-15.31828 -13.08172,20.03943 -13.08171,28.59705 -13.08172,-3.46438 -13.08171,-2.57419 -13.081724,5.3013 -13.08309,4.34636 -13.08172,6.99079 L 52.313481,164.30025 39.231764,163.1992 26.15005,160.67599 13.068333,160.29153 -0.01338681,147.88367 -13.095102,164.51382 Z m 0,0"
       style="fill:#2eb8b8;fill-opacity:0.4;fill-rule:nonzero;stroke:none;stroke-width:0.35277775" />
    <path
       inkscape:connector-curvature="0"
       id="path2035"
       d="M -13.095102,149.19558 -0.01338681,71.093862"
       style="fill:none;stroke:#ff6363;stroke-width:0.79374999;stroke-linecap:butt;stroke-linejoin:miter;stroke-miterlimit:10;stroke-opacity:1" />
    <path
       inkscape:connector-curvature="0"
       id="path2037"
       d="m -13.095102,152.59932 13.08171519,-7.23332 13.08171981,9.36103 13.081717,-5.10565 13.081714,-7.65912 13.081717,-11.4887 13.081715,2.55347 13.08172,-5.53145 13.08309,12.05509 13.081724,-11.91313 13.08171,-6.24113 13.08172,3.40374 13.08171,-22.12576 13.08172,1.41936 13.08172,13.61504 13.08172,-41.698088"
       style="fill:none;stroke:#2eb8b8;stroke-width:0.79374999;stroke-linecap:butt;stroke-linejoin:miter;stroke-miterlimit:10;stroke-dasharray:1.58749996, 0.79374998;stroke-opacity:1" />
    <path
       inkscape:connector-curvature="0"
       id="path2039"
       d="m 106.51008,148.06972 h 69.82666 c 1.03579,0 1.86935,1.16442 1.86935,2.61137 v 21.49189 c 0,1.44692 -0.83356,2.61137 -1.86935,2.61137 h -69.82666 c -1.03479,0 -1.86835,-1.16445 -1.86835,-2.61137 v -21.49189 c 0,-1.44695 0.83356,-2.61137 1.86835,-2.61137 z m 0,0"
       style="fill:#ffffff;fill-opacity:0.49189202;fill-rule:evenodd;stroke:#000000;stroke-width:0.22385761;stroke-linecap:round;stroke-linejoin:round;stroke-miterlimit:10;stroke-opacity:1" />
    <path
       inkscape:connector-curvature="0"
       id="path2147"
       d="m 107.84291,156.60942 c 9.16671,0 9.16671,0 9.16671,0"
       style="fill:none;stroke:#ff6363;stroke-width:0.64022642;stroke-linecap:butt;stroke-linejoin:miter;stroke-miterlimit:4;stroke-opacity:1" />
    <path
       inkscape:connector-curvature="0"
       id="path2149"
       d="m 107.84291,166.24466 c 9.16671,0 9.16671,0 9.16671,0"
       style="fill:none;stroke:#2eb8b8;stroke-width:0.64029169;stroke-linecap:butt;stroke-linejoin:miter;stroke-miterlimit:4;stroke-dasharray:1.2805833, 0.64029165;stroke-opacity:1" />
    <text
       xml:space="preserve"
       style="font-style:normal;font-variant:normal;font-weight:normal;font-stretch:normal;font-size:4.23333311px;line-height:1.25;font-family:'宋体';-inkscape-font-specification:'宋体';text-align:center;letter-spacing:0px;word-spacing:0px;writing-mode:lr-tb;text-anchor:middle;fill:#000000;fill-opacity:1;stroke:none;stroke-width:0.26458332"
       x="146.27675"
       y="158.28273"
       id="text7690"><tspan
         sodipodi:role="line"
         id="tspan7688"
         x="146.27675"
         y="158.28273"
         style="font-size:4.58611107px;stroke-width:0.26458332">使用识别模型迁移的<tspan
   style="font-style:normal;font-variant:normal;font-weight:normal;font-stretch:normal;font-family:'Times New Roman';-inkscape-font-specification:'Times New Roman, '"
   id="tspan975">NLM</tspan></tspan></text>
    <text
       xml:space="preserve"
       style="font-style:normal;font-variant:normal;font-weight:normal;font-stretch:normal;font-size:4.23333311px;line-height:1.25;font-family:'宋体';-inkscape-font-specification:'宋体';text-align:center;letter-spacing:0px;word-spacing:0px;writing-mode:lr-tb;text-anchor:middle;fill:#000000;fill-opacity:1;stroke:none;stroke-width:0.26458332"
       x="148.48022"
       y="168.24635"
       id="text7690-3"><tspan
         sodipodi:role="line"
         id="tspan7688-6"
         x="148.48022"
         y="168.24635"
         style="font-size:4.58611107px;stroke-width:0.26458332">未使用识别模型迁移的<tspan
   style="font-style:normal;font-variant:normal;font-weight:normal;font-stretch:normal;font-family:'Times New Roman';-inkscape-font-specification:'Times New Roman, '"
   id="tspan977">NLM</tspan></tspan></text>
    <text
       xml:space="preserve"
       style="font-style:normal;font-variant:normal;font-weight:normal;font-stretch:normal;font-size:4.23333311px;line-height:1.25;font-family:'宋体';-inkscape-font-specification:'宋体';text-align:center;letter-spacing:0px;word-spacing:0px;writing-mode:lr-tb;text-anchor:middle;fill:#000000;fill-opacity:1;stroke:none;stroke-width:0.26458332"
       x="98.204903"
       y="201.05113"
       id="text7723"><tspan
         sodipodi:role="line"
         id="tspan7721"
         x="98.204903"
         y="201.05113"
         style="font-size:5.64444447px;stroke-width:0.26458332">迭代轮数</tspan></text>
    <text
       xml:space="preserve"
       style="font-style:normal;font-variant:normal;font-weight:normal;font-stretch:normal;font-size:4.23333311px;line-height:1.25;font-family:'宋体';-inkscape-font-specification:'宋体';text-align:center;letter-spacing:0px;word-spacing:0px;writing-mode:lr-tb;text-anchor:middle;fill:#000000;fill-opacity:1;stroke:none;stroke-width:0.26458332"
       x="-34.246609"
       y="123.55511"
       id="text7723-7"><tspan
         sodipodi:role="line"
         id="tspan7721-5"
         x="123.55511"
         y="-34.246609"
         style="font-size:5.64444447px;writing-mode:tb-rl;stroke-width:0.26458332">训练精度</tspan></text>
  </g>
</svg>
