<?xml version="1.0" encoding="UTF-8" standalone="no"?>
<!-- Created with Inkscape (http://www.inkscape.org/) -->

<svg
   xmlns:dc="http://purl.org/dc/elements/1.1/"
   xmlns:cc="http://creativecommons.org/ns#"
   xmlns:rdf="http://www.w3.org/1999/02/22-rdf-syntax-ns#"
   xmlns:svg="http://www.w3.org/2000/svg"
   xmlns="http://www.w3.org/2000/svg"
   xmlns:sodipodi="http://sodipodi.sourceforge.net/DTD/sodipodi-0.dtd"
   xmlns:inkscape="http://www.inkscape.org/namespaces/inkscape"
   width="210mm"
   height="297mm"
   viewBox="0 0 210 297"
   version="1.1"
   id="svg8020"
   inkscape:version="0.92.2 2405546, 2018-03-11"
   sodipodi:docname="r6.svg">
  <defs
     id="defs8014" />
  <sodipodi:namedview
     id="base"
     pagecolor="#ffffff"
     bordercolor="#666666"
     borderopacity="1.0"
     inkscape:pageopacity="0.0"
     inkscape:pageshadow="2"
     inkscape:zoom="0.98994949"
     inkscape:cx="-153.89066"
     inkscape:cy="513.54577"
     inkscape:document-units="mm"
     inkscape:current-layer="layer1"
     showgrid="false"
     inkscape:window-width="1920"
     inkscape:window-height="1080"
     inkscape:window-x="1920"
     inkscape:window-y="0"
     inkscape:window-maximized="0" />
  <metadata
     id="metadata8017">
    <rdf:RDF>
      <cc:Work
         rdf:about="">
        <dc:format>image/svg+xml</dc:format>
        <dc:type
           rdf:resource="http://purl.org/dc/dcmitype/StillImage" />
        <dc:title></dc:title>
      </cc:Work>
    </rdf:RDF>
  </metadata>
  <g
     inkscape:label="Layer 1"
     inkscape:groupmode="layer"
     id="layer1">
    <path
       inkscape:connector-curvature="0"
       id="path1601"
       d="M 153.45074,187.14794 H -68.808892 V 68.009626 H 153.45074"
       style="fill:none;stroke:#000000;stroke-width:0.26475194;stroke-linecap:butt;stroke-linejoin:miter;stroke-miterlimit:10;stroke-opacity:1" />
    <path
       inkscape:connector-curvature="0"
       id="path1603"
       d="M -68.941184,187.14794 H 153.45074"
       style="fill:none;stroke:#d1d1d1;stroke-width:0.26475194;stroke-linecap:butt;stroke-linejoin:miter;stroke-miterlimit:10;stroke-opacity:0.52548996" />
    <path
       inkscape:connector-curvature="0"
       id="path1605"
       d="M -68.941184,167.2904 H 153.45074"
       style="fill:none;stroke:#d1d1d1;stroke-width:0.26475194;stroke-linecap:butt;stroke-linejoin:miter;stroke-miterlimit:10;stroke-opacity:0.52548996" />
    <path
       inkscape:connector-curvature="0"
       id="path1607"
       d="M -68.941184,147.43422 H 153.45074"
       style="fill:none;stroke:#d1d1d1;stroke-width:0.26475194;stroke-linecap:butt;stroke-linejoin:miter;stroke-miterlimit:10;stroke-opacity:0.52548996" />
    <path
       inkscape:connector-curvature="0"
       id="path1609"
       d="M -68.941184,127.57809 H 153.45074"
       style="fill:none;stroke:#d1d1d1;stroke-width:0.26475194;stroke-linecap:butt;stroke-linejoin:miter;stroke-miterlimit:10;stroke-opacity:0.52548996" />
    <path
       inkscape:connector-curvature="0"
       id="path1611"
       d="M -68.941184,107.72193 H 153.45074"
       style="fill:none;stroke:#d1d1d1;stroke-width:0.26475194;stroke-linecap:butt;stroke-linejoin:miter;stroke-miterlimit:10;stroke-opacity:0.52548996" />
    <path
       inkscape:connector-curvature="0"
       id="path1613"
       d="M -68.941184,87.865793 H 153.45074"
       style="fill:none;stroke:#d1d1d1;stroke-width:0.26475194;stroke-linecap:butt;stroke-linejoin:miter;stroke-miterlimit:10;stroke-opacity:0.52548996" />
    <path
       inkscape:connector-curvature="0"
       id="path1615"
       d="M -68.941184,68.009626 H 153.45074"
       style="fill:none;stroke:#d1d1d1;stroke-width:0.26475194;stroke-linecap:butt;stroke-linejoin:miter;stroke-miterlimit:10;stroke-opacity:0.52548996" />
    <path
       inkscape:connector-curvature="0"
       id="path1617"
       d="m -68.808892,188.60315 v -1.45521 H 153.58303 v 1.45521"
       style="fill:none;stroke:#000000;stroke-width:0.26475194;stroke-linecap:butt;stroke-linejoin:miter;stroke-miterlimit:10;stroke-opacity:0.74901997" />
    <path
       inkscape:connector-curvature="0"
       id="path1619"
       d="m -41.851707,187.01565 v 1.5875"
       style="fill:none;stroke:#000000;stroke-width:0.26475194;stroke-linecap:butt;stroke-linejoin:miter;stroke-miterlimit:10;stroke-opacity:0.74901997" />
    <path
       inkscape:connector-curvature="0"
       id="path1621"
       d="m -40.289014,192.76205 c 0,0.52228 -0.17363,0.94258 -0.518141,1.26227 -0.345885,0.31972 -0.810287,0.47956 -1.394574,0.47956 -0.500229,0 -0.873676,-0.0758 -1.118968,-0.22598 v -0.68901 c 0.359669,0.23562 0.727604,0.35277 1.102429,0.35277 0.370697,0 0.669729,-0.10199 0.898482,-0.30868 0.227378,-0.20535 0.341755,-0.47681 0.341755,-0.8158 0,-0.34177 -0.119888,-0.60635 -0.358291,-0.79375 -0.235643,-0.19018 -0.570505,-0.28663 -1.003213,-0.28663 -0.334859,0 -0.636651,0.0152 -0.903994,0.0441 l 0.192929,-2.70648 h 2.497003 v 0.58981 h -1.929255 l -0.110241,1.51582 0.485069,-0.0219 c 0.564999,0 1.010105,0.14196 1.333939,0.42446 0.322463,0.27972 0.485071,0.67247 0.485071,1.17958 z m 0,0"
       style="fill:#000000;fill-opacity:1;fill-rule:nonzero;stroke:none;stroke-width:0.35277775" />
    <path
       inkscape:connector-curvature="0"
       id="path1623"
       d="m -8.155905,187.01565 v 1.5875"
       style="fill:none;stroke:#000000;stroke-width:0.26475194;stroke-linecap:butt;stroke-linejoin:miter;stroke-miterlimit:10;stroke-opacity:0.74901997" />
    <path
       inkscape:connector-curvature="0"
       id="path1625"
       d="m -10.333214,194.41019 v -4.56406 c -0.103365,0.10749 -0.281128,0.22598 -0.53467,0.35828 -0.250825,0.12954 -0.482317,0.21911 -0.69455,0.27008 v -0.66146 c 0.278379,-0.0772 0.578768,-0.19981 0.89849,-0.36928 0.32244,-0.17227 0.570514,-0.33348 0.744149,-0.48507 h 0.259046 v 5.45151 z m 0,0"
       style="fill:#000000;fill-opacity:1;fill-rule:nonzero;stroke:none;stroke-width:0.35277775" />
    <path
       inkscape:connector-curvature="0"
       id="path1627"
       d="m -7.84172,191.84704 c 0,-0.93983 0.155715,-1.65089 0.468524,-2.13321 0.31143,-0.48507 0.763444,-0.7276 1.356005,-0.7276 1.131359,0 1.697744,0.91225 1.697744,2.73403 0,0.90124 -0.15988,1.59025 -0.479568,2.06706 -0.316934,0.47403 -0.763444,0.71106 -1.339461,0.71106 -0.540173,0 -0.959096,-0.22599 -1.256771,-0.678 -0.297637,-0.45198 -0.446473,-1.10931 -0.446473,-1.97334 z m 0.689009,-0.0332 c 0,1.41941 0.359656,2.12771 1.080381,2.12771 0.705556,0 1.058333,-0.71935 1.058333,-2.16076 0,-1.49105 -0.347273,-2.23795 -1.041786,-2.23795 -0.731732,0 -1.096928,0.75794 -1.096928,2.271 z m 0,0"
       style="fill:#000000;fill-opacity:1;fill-rule:nonzero;stroke:none;stroke-width:0.35277775" />
    <path
       inkscape:connector-curvature="0"
       id="path1629"
       d="m 25.539875,187.01565 v 1.5875"
       style="fill:none;stroke:#000000;stroke-width:0.26475194;stroke-linecap:butt;stroke-linejoin:miter;stroke-miterlimit:10;stroke-opacity:0.74901997" />
    <path
       inkscape:connector-curvature="0"
       id="path1631"
       d="m 23.362565,194.41019 v -4.56406 c -0.10336,0.10749 -0.28113,0.22598 -0.53467,0.35828 -0.25079,0.12954 -0.48232,0.21911 -0.69455,0.27008 v -0.66146 c 0.27838,-0.0772 0.5788,-0.19981 0.89849,-0.36928 0.32248,-0.17227 0.57051,-0.33348 0.74415,-0.48507 h 0.25908 v 5.45151 z m 0,0"
       style="fill:#000000;fill-opacity:1;fill-rule:nonzero;stroke:none;stroke-width:0.35277775" />
    <path
       inkscape:connector-curvature="0"
       id="path1633"
       d="m 29.172395,192.76205 c 0,0.52228 -0.17364,0.94258 -0.51816,1.26227 -0.3459,0.31972 -0.8103,0.47956 -1.39457,0.47956 -0.50024,0 -0.87369,-0.0758 -1.11897,-0.22598 v -0.68901 c 0.35965,0.23562 0.7276,0.35277 1.10243,0.35277 0.37069,0 0.66975,-0.10199 0.89849,-0.30868 0.22736,-0.20535 0.34173,-0.47681 0.34173,-0.8158 0,-0.34177 -0.11987,-0.60635 -0.35828,-0.79375 -0.23566,-0.19018 -0.57051,-0.28663 -1.00319,-0.28663 -0.33489,0 -0.63666,0.0152 -0.904,0.0441 l 0.1929,-2.70648 h 2.49703 v 0.58981 h -1.92927 l -0.11024,1.51582 0.48507,-0.0219 c 0.56501,0 1.01011,0.14196 1.33396,0.42446 0.32244,0.27972 0.48507,0.67247 0.48507,1.17958 z m 0,0"
       style="fill:#000000;fill-opacity:1;fill-rule:nonzero;stroke:none;stroke-width:0.35277775" />
    <path
       inkscape:connector-curvature="0"
       id="path1635"
       d="m 59.234275,187.01565 v 1.5875"
       style="fill:none;stroke:#000000;stroke-width:0.26475194;stroke-linecap:butt;stroke-linejoin:miter;stroke-miterlimit:10;stroke-opacity:0.74901997" />
    <path
       inkscape:connector-curvature="0"
       id="path1637"
       d="m 58.034025,190.47449 c 0,-0.28938 -0.0924,-0.51537 -0.27563,-0.67797 -0.18051,-0.16538 -0.42718,-0.24807 -0.73861,-0.24807 -0.22048,0 -0.44372,0.0579 -0.667,0.17089 -0.22461,0.11024 -0.43405,0.27008 -0.62836,0.47956 v -0.65595 c 0.17226,-0.17914 0.36932,-0.31694 0.58981,-0.41342 0.22323,-0.0951 0.48507,-0.1433 0.78271,-0.1433 0.48094,0 0.86818,0.12954 1.16307,0.38583 0.29351,0.25771 0.44097,0.60636 0.44097,1.04733 0,0.39412 -0.0909,0.73311 -0.27009,1.01974 -0.18055,0.28663 -0.48782,0.58155 -0.92053,0.88194 -0.44923,0.30868 -0.74828,0.52917 -0.8985,0.66146 -0.15158,0.13229 -0.25629,0.26183 -0.31418,0.38587 -0.0593,0.12125 -0.0882,0.26871 -0.0882,0.44097 h 2.65133 v 0.60082 h -3.35689 v -0.26459 c 0,-0.30868 0.0414,-0.56913 0.12679,-0.78274 0.084,-0.21632 0.22186,-0.4258 0.41339,-0.62837 0.19431,-0.20119 0.49611,-0.44647 0.90399,-0.7331 0.41892,-0.29355 0.7028,-0.55122 0.85439,-0.77171 0.15434,-0.22323 0.23153,-0.47543 0.23153,-0.75519 z m 0,0"
       style="fill:#000000;fill-opacity:1;fill-rule:nonzero;stroke:none;stroke-width:0.35277775" />
    <path
       inkscape:connector-curvature="0"
       id="path1639"
       d="m 59.548465,191.84704 c 0,-0.93983 0.15571,-1.65089 0.46856,-2.13321 0.31143,-0.48507 0.76341,-0.7276 1.35597,-0.7276 1.13136,0 1.69774,0.91225 1.69774,2.73403 0,0.90124 -0.15984,1.59025 -0.47956,2.06706 -0.31694,0.47403 -0.76342,0.71106 -1.33943,0.71106 -0.54021,0 -0.95913,-0.22599 -1.25677,-0.678 -0.29767,-0.45198 -0.44651,-1.10931 -0.44651,-1.97334 z m 0.68904,-0.0332 c 0,1.41941 0.35966,2.12771 1.08039,2.12771 0.70555,0 1.05833,-0.71935 1.05833,-2.16076 0,-1.49105 -0.34728,-2.23795 -1.04182,-2.23795 -0.73173,0 -1.0969,0.75794 -1.0969,2.271 z m 0,0"
       style="fill:#000000;fill-opacity:1;fill-rule:nonzero;stroke:none;stroke-width:0.35277775" />
    <path
       inkscape:connector-curvature="0"
       id="path1641"
       d="m 92.930055,187.01565 v 1.5875"
       style="fill:none;stroke:#000000;stroke-width:0.26475194;stroke-linecap:butt;stroke-linejoin:miter;stroke-miterlimit:10;stroke-opacity:0.74901997" />
    <path
       inkscape:connector-curvature="0"
       id="path1643"
       d="m 91.729805,190.47449 c 0,-0.28938 -0.0923,-0.51537 -0.27563,-0.67797 -0.18051,-0.16538 -0.42718,-0.24807 -0.73861,-0.24807 -0.22048,0 -0.44372,0.0579 -0.66696,0.17089 -0.22465,0.11024 -0.43409,0.27008 -0.6284,0.47956 v -0.65595 c 0.17226,-0.17914 0.36932,-0.31694 0.58981,-0.41342 0.22323,-0.0951 0.48507,-0.1433 0.78271,-0.1433 0.48094,0 0.86818,0.12954 1.16307,0.38583 0.29351,0.25771 0.44097,0.60636 0.44097,1.04733 0,0.39412 -0.0909,0.73311 -0.27009,1.01974 -0.18051,0.28663 -0.48782,0.58155 -0.92053,0.88194 -0.44923,0.30868 -0.74828,0.52917 -0.8985,0.66146 -0.15155,0.13229 -0.25629,0.26183 -0.31418,0.38587 -0.0593,0.12125 -0.0882,0.26871 -0.0882,0.44097 h 2.65133 v 0.60082 h -3.35689 v -0.26459 c 0,-0.30868 0.0413,-0.56913 0.12679,-0.78274 0.0841,-0.21632 0.22186,-0.4258 0.41342,-0.62837 0.19428,-0.20119 0.49608,-0.44647 0.90399,-0.7331 0.41893,-0.29355 0.70281,-0.55122 0.85436,-0.77171 0.15434,-0.22323 0.23153,-0.47543 0.23153,-0.75519 z m 0,0"
       style="fill:#000000;fill-opacity:1;fill-rule:nonzero;stroke:none;stroke-width:0.35277775" />
    <path
       inkscape:connector-curvature="0"
       id="path1645"
       d="m 96.562575,192.76205 c 0,0.52228 -0.17364,0.94258 -0.51812,1.26227 -0.3459,0.31972 -0.8103,0.47956 -1.3946,0.47956 -0.50021,0 -0.87366,-0.0758 -1.11895,-0.22598 v -0.68901 c 0.35966,0.23562 0.72761,0.35277 1.10244,0.35277 0.37066,0 0.66971,-0.10199 0.89845,-0.30868 0.2274,-0.20535 0.34177,-0.47681 0.34177,-0.8158 0,-0.34177 -0.11991,-0.60635 -0.35828,-0.79375 -0.23565,-0.19018 -0.57051,-0.28663 -1.00323,-0.28663 -0.33486,0 -0.63666,0.0152 -0.90399,0.0441 l 0.19293,-2.70648 h 2.497 v 0.58981 h -1.92924 l -0.11024,1.51582 0.48507,-0.0219 c 0.56497,0 1.01007,0.14196 1.33392,0.42446 0.32248,0.27972 0.48507,0.67247 0.48507,1.17958 z m 0,0"
       style="fill:#000000;fill-opacity:1;fill-rule:nonzero;stroke:none;stroke-width:0.35277775" />
    <path
       inkscape:connector-curvature="0"
       id="path1647"
       d="m 126.62587,187.01565 v 1.5875"
       style="fill:none;stroke:#000000;stroke-width:0.26475194;stroke-linecap:butt;stroke-linejoin:miter;stroke-miterlimit:10;stroke-opacity:0.74901997" />
    <path
       inkscape:connector-curvature="0"
       id="path1649"
       d="m 122.97818,193.5172 c 0.36658,0.28388 0.77999,0.42446 1.24023,0.42446 0.36657,0 0.65733,-0.0896 0.87094,-0.27012 0.21635,-0.17914 0.32522,-0.42167 0.32522,-0.7276 0,-0.67247 -0.48369,-1.0087 -1.4497,-1.0087 h -0.44648 v -0.56226 h 0.42443 c 0.85577,0 1.28432,-0.31556 1.28432,-0.94809 0,-0.58702 -0.32798,-0.88194 -0.98114,-0.88194 -0.37483,0 -0.72761,0.12679 -1.05834,0.38033 v -0.63387 c 0.34862,-0.20119 0.75654,-0.30318 1.22368,-0.30318 0.45477,0 0.8213,0.11987 1.09693,0.35828 0.27559,0.23566 0.41342,0.54296 0.41342,0.92054 0,0.69868 -0.35694,1.14653 -1.06938,1.34496 v 0.0166 c 0.38587,0.0414 0.69039,0.17639 0.91504,0.40789 0.22324,0.23152 0.33623,0.52091 0.33623,0.8654 0,0.47819 -0.17363,0.86406 -0.51816,1.15757 -0.34586,0.29488 -0.80751,0.44097 -1.38352,0.44097 -0.50437,0 -0.91228,-0.0937 -1.22372,-0.28113 z m 0,0"
       style="fill:#000000;fill-opacity:1;fill-rule:nonzero;stroke:none;stroke-width:0.35277775" />
    <path
       inkscape:connector-curvature="0"
       id="path1651"
       d="m 126.94005,191.84704 c 0,-0.93983 0.15572,-1.65089 0.46853,-2.13321 0.31143,-0.48507 0.76345,-0.7276 1.35601,-0.7276 1.13135,0 1.69774,0.91225 1.69774,2.73403 0,0.90124 -0.15988,1.59025 -0.47957,2.06706 -0.31697,0.47403 -0.76344,0.71106 -1.33946,0.71106 -0.54017,0 -0.9591,-0.22599 -1.25677,-0.678 -0.29764,-0.45198 -0.44648,-1.10931 -0.44648,-1.97334 z m 0.68901,-0.0332 c 0,1.41941 0.35966,2.12771 1.08039,2.12771 0.70555,0 1.05833,-0.71935 1.05833,-2.16076 0,-1.49105 -0.34728,-2.23795 -1.04179,-2.23795 -0.73173,0 -1.09693,0.75794 -1.09693,2.271 z m 0,0"
       style="fill:#000000;fill-opacity:1;fill-rule:nonzero;stroke:none;stroke-width:0.35277775" />
    <path
       inkscape:connector-curvature="0"
       id="path1653"
       d="m -70.53006,187.14794 h 1.721168 V 68.009626 h -1.721168"
       style="fill:none;stroke:#000000;stroke-width:0.26475194;stroke-linecap:butt;stroke-linejoin:miter;stroke-miterlimit:10;stroke-opacity:0.74901997" />
    <path
       inkscape:connector-curvature="0"
       id="path1655"
       d="M -68.941184,187.14794 H -70.53006"
       style="fill:none;stroke:#000000;stroke-width:0.26475194;stroke-linecap:butt;stroke-linejoin:miter;stroke-miterlimit:10;stroke-opacity:0.74901997" />
    <path
       inkscape:connector-curvature="0"
       id="path1657"
       d="m -80.986615,186.84339 c 0,-0.93984 0.15572,-1.6509 0.468535,-2.13321 0.311435,-0.48507 0.763432,-0.72761 1.355989,-0.72761 1.131369,0 1.697743,0.91225 1.697743,2.73403 0,0.90124 -0.159854,1.59025 -0.479559,2.06706 -0.316946,0.47403 -0.763432,0.71106 -1.339451,0.71106 -0.540191,0 -0.959115,-0.22599 -1.256771,-0.678 -0.297656,-0.45198 -0.446486,-1.10931 -0.446486,-1.97333 z m 0.689021,-0.0332 c 0,1.4194 0.359667,2.1277 1.080382,2.1277 0.705555,0 1.058333,-0.71934 1.058333,-2.16076 0,-1.49105 -0.347267,-2.23795 -1.041799,-2.23795 -0.731738,0 -1.096916,0.75794 -1.096916,2.27101 z m 0,0"
       style="fill:#000000;fill-opacity:1;fill-rule:nonzero;stroke:none;stroke-width:0.35277775" />
    <path
       inkscape:connector-curvature="0"
       id="path1659"
       d="m -76.754658,189.05375 c 0,-0.12404 0.04134,-0.22874 0.126778,-0.31418 0.08819,-0.0841 0.194303,-0.12679 0.319705,-0.12679 0.128157,0 0.234266,0.0427 0.319705,0.12679 0.08406,0.0854 0.126781,0.19014 0.126781,0.31418 0,0.1185 -0.04272,0.22049 -0.126781,0.30868 -0.08544,0.0841 -0.192924,0.12679 -0.325215,0.12679 -0.125402,0 -0.230135,-0.0427 -0.314195,-0.12679 -0.08544,-0.0882 -0.126778,-0.19018 -0.126778,-0.30868 z m 0,0"
       style="fill:#000000;fill-opacity:1;fill-rule:nonzero;stroke:none;stroke-width:0.35277775" />
    <path
       inkscape:connector-curvature="0"
       id="path1661"
       d="m -72.260876,184.07077 v 3.52227 h 0.799261 v 0.55672 h -0.799261 v 1.25677 h -0.650433 v -1.25677 h -2.491494 v -0.52366 c 0.440973,-0.49883 0.8847,-1.07488 1.333941,-1.7253 0.447862,-0.65045 0.817175,-1.25952 1.107941,-1.83003 z m -2.386763,3.52227 h 1.73633 v -2.54113 c -0.23978,0.42997 -0.496094,0.84752 -0.771702,1.25127 -0.272852,0.401 -0.593937,0.83097 -0.964628,1.28986 z m 0,0"
       style="fill:#000000;fill-opacity:1;fill-rule:nonzero;stroke:none;stroke-width:0.35277775" />
    <path
       inkscape:connector-curvature="0"
       id="path1663"
       d="M -68.941184,167.2904 H -70.53006"
       style="fill:none;stroke:#000000;stroke-width:0.26475194;stroke-linecap:butt;stroke-linejoin:miter;stroke-miterlimit:10;stroke-opacity:0.74901997" />
    <path
       inkscape:connector-curvature="0"
       id="path1665"
       d="m -80.986615,166.98722 c 0,-0.9398 0.15572,-1.65089 0.468535,-2.13321 0.311435,-0.48508 0.763432,-0.72761 1.355989,-0.72761 1.131369,0 1.697743,0.91229 1.697743,2.73403 0,0.90124 -0.159854,1.59029 -0.479559,2.06707 -0.316946,0.47406 -0.763432,0.71106 -1.339451,0.71106 -0.540191,0 -0.959115,-0.22599 -1.256771,-0.67797 -0.297656,-0.45202 -0.446486,-1.10935 -0.446486,-1.97337 z m 0.689021,-0.0332 c 0,1.41937 0.359667,2.12767 1.080382,2.12767 0.705555,0 1.058333,-0.71931 1.058333,-2.16076 0,-1.49102 -0.347267,-2.23792 -1.041799,-2.23792 -0.731738,0 -1.096916,0.75791 -1.096916,2.27101 z m 0,0"
       style="fill:#000000;fill-opacity:1;fill-rule:nonzero;stroke:none;stroke-width:0.35277775" />
    <path
       inkscape:connector-curvature="0"
       id="path1667"
       d="m -76.754658,169.19758 c 0,-0.124 0.04134,-0.22874 0.126778,-0.31418 0.08819,-0.0841 0.194303,-0.12679 0.319705,-0.12679 0.128157,0 0.234266,0.0427 0.319705,0.12679 0.08406,0.0854 0.126781,0.19018 0.126781,0.31418 0,0.11854 -0.04272,0.22049 -0.126781,0.30869 -0.08544,0.0841 -0.192924,0.12678 -0.325215,0.12678 -0.125402,0 -0.230135,-0.0427 -0.314195,-0.12678 -0.08544,-0.0882 -0.126778,-0.19015 -0.126778,-0.30869 z m 0,0"
       style="fill:#000000;fill-opacity:1;fill-rule:nonzero;stroke:none;stroke-width:0.35277775" />
    <path
       inkscape:connector-curvature="0"
       id="path1669"
       d="m -71.830928,167.90226 c 0,0.52225 -0.173633,0.94255 -0.518142,1.26227 -0.345888,0.31969 -0.810288,0.47956 -1.394576,0.47956 -0.500229,0 -0.873676,-0.0758 -1.118966,-0.22602 v -0.68901 c 0.359668,0.23566 0.727605,0.35278 1.102431,0.35278 0.370692,0 0.669727,-0.10196 0.898479,-0.30868 0.227376,-0.20532 0.341754,-0.47678 0.341754,-0.8158 0,-0.34174 -0.119888,-0.60632 -0.358289,-0.79375 -0.235645,-0.19015 -0.570508,-0.28663 -1.003211,-0.28663 -0.334864,0 -0.636655,0.0152 -0.903993,0.0441 l 0.192923,-2.70648 h 2.497007 v 0.58981 h -1.929254 l -0.110242,1.51586 0.485069,-0.0219 c 0.564995,0 1.010102,0.14192 1.333941,0.42442 0.32246,0.27976 0.485069,0.67251 0.485069,1.17962 z m 0,0"
       style="fill:#000000;fill-opacity:1;fill-rule:nonzero;stroke:none;stroke-width:0.35277775" />
    <path
       inkscape:connector-curvature="0"
       id="path1671"
       d="M -68.941184,147.43422 H -70.53006"
       style="fill:none;stroke:#000000;stroke-width:0.26475194;stroke-linecap:butt;stroke-linejoin:miter;stroke-miterlimit:10;stroke-opacity:0.74901997" />
    <path
       inkscape:connector-curvature="0"
       id="path1673"
       d="m -80.986615,147.13108 c 0,-0.93983 0.15572,-1.65089 0.468535,-2.13321 0.311435,-0.48507 0.763432,-0.7276 1.355989,-0.7276 1.131369,0 1.697743,0.91224 1.697743,2.73403 0,0.90124 -0.159854,1.59025 -0.479559,2.06706 -0.316946,0.47403 -0.763432,0.71106 -1.339451,0.71106 -0.540191,0 -0.959115,-0.22599 -1.256771,-0.678 -0.297656,-0.45198 -0.446486,-1.10931 -0.446486,-1.97334 z m 0.689021,-0.0332 c 0,1.41937 0.359667,2.12771 1.080382,2.12771 0.705555,0 1.058333,-0.71935 1.058333,-2.16076 0,-1.49105 -0.347267,-2.23796 -1.041799,-2.23796 -0.731738,0 -1.096916,0.75791 -1.096916,2.27101 z m 0,0"
       style="fill:#000000;fill-opacity:1;fill-rule:nonzero;stroke:none;stroke-width:0.35277775" />
    <path
       inkscape:connector-curvature="0"
       id="path1675"
       d="m -76.754658,149.34145 c 0,-0.12404 0.04134,-0.22878 0.126778,-0.31419 0.08819,-0.0841 0.194303,-0.12678 0.319705,-0.12678 0.128157,0 0.234266,0.0427 0.319705,0.12678 0.08406,0.0854 0.126781,0.19015 0.126781,0.31419 0,0.1185 -0.04272,0.22048 -0.126781,0.30868 -0.08544,0.0841 -0.192924,0.12679 -0.325215,0.12679 -0.125402,0 -0.230135,-0.0427 -0.314195,-0.12679 -0.08544,-0.0882 -0.126778,-0.19018 -0.126778,-0.30868 z m 0,0"
       style="fill:#000000;fill-opacity:1;fill-rule:nonzero;stroke:none;stroke-width:0.35277775" />
    <path
       inkscape:connector-curvature="0"
       id="path1677"
       d="m -71.957709,145.04197 c -0.275608,-0.14333 -0.566374,-0.21498 -0.87092,-0.21498 -0.460262,0 -0.830958,0.20256 -1.113455,0.60635 -0.279742,0.401 -0.421679,0.95084 -0.424434,1.64811 h 0.01654 c 0.253559,-0.49195 0.655947,-0.73861 1.207163,-0.73861 0.463021,0 0.832333,0.15158 1.107941,0.45198 0.275607,0.3018 0.413413,0.7028 0.413413,1.20166 0,0.52229 -0.159854,0.95084 -0.479559,1.28432 -0.316946,0.33486 -0.72209,0.50162 -1.218184,0.50162 -0.540191,0 -0.964629,-0.21085 -1.273309,-0.63391 -0.308681,-0.42167 -0.463021,-1.02249 -0.463021,-1.80248 0,-0.94393 0.201196,-1.6922 0.606337,-2.24342 0.403765,-0.554 0.937066,-0.83234 1.598524,-0.83234 0.381716,0 0.679372,0.0523 0.892969,0.15434 z m -2.370225,2.90491 c 0,0.35278 0.09371,0.65455 0.281121,0.904 0.187413,0.25079 0.436838,0.37482 0.749653,0.37482 0.293522,0 0.531922,-0.10749 0.71658,-0.32522 0.183278,-0.21636 0.275607,-0.49336 0.275607,-0.83235 0,-0.36657 -0.08819,-0.65179 -0.264583,-0.85439 -0.173634,-0.20532 -0.418924,-0.30868 -0.738628,-0.30868 -0.301791,0 -0.548461,0.10336 -0.738629,0.30868 -0.187413,0.20673 -0.281121,0.45064 -0.281121,0.73314 z m 0,0"
       style="fill:#000000;fill-opacity:1;fill-rule:nonzero;stroke:none;stroke-width:0.35277775" />
    <path
       inkscape:connector-curvature="0"
       id="path1679"
       d="M -68.941184,127.57809 H -70.53006"
       style="fill:none;stroke:#000000;stroke-width:0.26475194;stroke-linecap:butt;stroke-linejoin:miter;stroke-miterlimit:10;stroke-opacity:0.74901997" />
    <path
       inkscape:connector-curvature="0"
       id="path1681"
       d="m -80.986615,127.27492 c 0,-0.93984 0.15572,-1.6509 0.468535,-2.13322 0.311435,-0.48507 0.763432,-0.7276 1.355989,-0.7276 1.131369,0 1.697743,0.91228 1.697743,2.73403 0,0.90124 -0.159854,1.59025 -0.479559,2.06706 -0.316946,0.47407 -0.763432,0.71106 -1.339451,0.71106 -0.540191,0 -0.959115,-0.22599 -1.256771,-0.67797 -0.297656,-0.45201 -0.446486,-1.10934 -0.446486,-1.97336 z m 0.689021,-0.0332 c 0,1.41936 0.359667,2.12767 1.080382,2.12767 0.705555,0 1.058333,-0.71935 1.058333,-2.16076 0,-1.49105 -0.347267,-2.23792 -1.041799,-2.23792 -0.731738,0 -1.096916,0.75791 -1.096916,2.27101 z m 0,0"
       style="fill:#000000;fill-opacity:1;fill-rule:nonzero;stroke:none;stroke-width:0.35277775" />
    <path
       inkscape:connector-curvature="0"
       id="path1683"
       d="m -76.754658,129.48528 c 0,-0.124 0.04134,-0.22874 0.126778,-0.31418 0.08819,-0.0841 0.194303,-0.12679 0.319705,-0.12679 0.128157,0 0.234266,0.0427 0.319705,0.12679 0.08406,0.0854 0.126781,0.19018 0.126781,0.31418 0,0.11853 -0.04272,0.22049 -0.126781,0.30868 -0.08544,0.0841 -0.192924,0.12679 -0.325215,0.12679 -0.125402,0 -0.230135,-0.0427 -0.314195,-0.12679 -0.08544,-0.0882 -0.126778,-0.19015 -0.126778,-0.30868 z m 0,0"
       style="fill:#000000;fill-opacity:1;fill-rule:nonzero;stroke:none;stroke-width:0.35277775" />
    <path
       inkscape:connector-curvature="0"
       id="path1685"
       d="m -71.693125,124.91571 c -0.559482,0.98119 -0.997698,1.88931 -1.317403,2.72302 -0.319705,0.83094 -0.518143,1.56405 -0.595313,2.19933 h -0.705555 c 0.08819,-0.62837 0.289387,-1.34222 0.606337,-2.14422 0.31557,-0.80476 0.738628,-1.67019 1.267794,-2.59623 h -2.645833 v -0.59532 h 3.389973 z m 0,0"
       style="fill:#000000;fill-opacity:1;fill-rule:nonzero;stroke:none;stroke-width:0.35277775" />
    <path
       inkscape:connector-curvature="0"
       id="path1687"
       d="M -68.941184,107.72193 H -70.53006"
       style="fill:none;stroke:#000000;stroke-width:0.26475194;stroke-linecap:butt;stroke-linejoin:miter;stroke-miterlimit:10;stroke-opacity:0.74901997" />
    <path
       inkscape:connector-curvature="0"
       id="path1689"
       d="m -80.986615,107.41737 c 0,-0.9398 0.15572,-1.65086 0.468535,-2.13317 0.311435,-0.48507 0.763432,-0.72761 1.355989,-0.72761 1.131369,0 1.697743,0.91225 1.697743,2.73403 0,0.90124 -0.159854,1.59025 -0.479559,2.06703 -0.316946,0.47406 -0.763432,0.71109 -1.339451,0.71109 -0.540191,0 -0.959115,-0.22602 -1.256771,-0.678 -0.297656,-0.45201 -0.446486,-1.10931 -0.446486,-1.97337 z m 0.689021,-0.0332 c 0,1.41937 0.359667,2.12768 1.080382,2.12768 0.705555,0 1.058333,-0.71931 1.058333,-2.16076 0,-1.49102 -0.347267,-2.23792 -1.041799,-2.23792 -0.731738,0 -1.096916,0.7579 -1.096916,2.271 z m 0,0"
       style="fill:#000000;fill-opacity:1;fill-rule:nonzero;stroke:none;stroke-width:0.35277775" />
    <path
       inkscape:connector-curvature="0"
       id="path1691"
       d="m -76.754658,109.62777 c 0,-0.12403 0.04134,-0.22877 0.126778,-0.31422 0.08819,-0.084 0.194303,-0.12675 0.319705,-0.12675 0.128157,0 0.234266,0.0427 0.319705,0.12675 0.08406,0.0854 0.126781,0.19019 0.126781,0.31422 0,0.1185 -0.04272,0.22049 -0.126781,0.30868 -0.08544,0.084 -0.192924,0.12676 -0.325215,0.12676 -0.125402,0 -0.230135,-0.0427 -0.314195,-0.12676 -0.08544,-0.0882 -0.126778,-0.19018 -0.126778,-0.30868 z m 0,0"
       style="fill:#000000;fill-opacity:1;fill-rule:nonzero;stroke:none;stroke-width:0.35277775" />
    <path
       inkscape:connector-curvature="0"
       id="path1693"
       d="m -75.127195,108.49225 c 0,-0.30868 0.09095,-0.59118 0.275608,-0.84885 0.183278,-0.26046 0.420299,-0.44651 0.711066,-0.55676 -0.231511,-0.13229 -0.416165,-0.29901 -0.551215,-0.50158 -0.136427,-0.20535 -0.203948,-0.42721 -0.203948,-0.66699 0,-0.25354 0.06339,-0.48229 0.192923,-0.68901 0.132292,-0.20945 0.311439,-0.37208 0.540191,-0.49058 0.23151,-0.12128 0.486449,-0.18189 0.766191,-0.18189 0.278363,0 0.534677,0.0592 0.766187,0.17639 0.23427,0.1185 0.416169,0.28109 0.545705,0.49057 0.128157,0.20945 0.192924,0.44098 0.192924,0.69452 0,0.23565 -0.06615,0.45614 -0.198437,0.66146 -0.132292,0.20672 -0.316947,0.37482 -0.551216,0.50711 0.289391,0.11441 0.525032,0.3018 0.705556,0.56226 0.179147,0.2577 0.270097,0.5388 0.270097,0.84335 0,0.3018 -0.07166,0.57327 -0.214976,0.8158 -0.143316,0.23978 -0.350019,0.42721 -0.617361,0.56226 -0.264583,0.13229 -0.564995,0.19843 -0.898479,0.19843 -0.330729,0 -0.628386,-0.0662 -0.892969,-0.19843 -0.264583,-0.13505 -0.47129,-0.32248 -0.617361,-0.56226 -0.14745,-0.24253 -0.220486,-0.514 -0.220486,-0.8158 z m 0.661458,-0.0332 c 0,0.31969 0.09646,0.57602 0.292143,0.76616 0.198437,0.18743 0.458886,0.28113 0.782725,0.28113 0.315571,0 0.573264,-0.0951 0.771702,-0.28663 0.201196,-0.19431 0.30317,-0.44785 0.30317,-0.76066 0,-0.29355 -0.101974,-0.54021 -0.30317,-0.73865 -0.202572,-0.20119 -0.460262,-0.30317 -0.771702,-0.30317 -0.312815,0 -0.570505,0.0992 -0.771701,0.29767 -0.202572,0.19569 -0.303167,0.44372 -0.303167,0.74415 z m 0.192924,-2.48599 c 0,0.23978 0.08406,0.4451 0.253559,0.61736 0.172254,0.16951 0.381716,0.25354 0.628385,0.25354 0.238401,0 0.446487,-0.0854 0.622875,-0.25904 0.176389,-0.17226 0.264584,-0.3762 0.264584,-0.61186 0,-0.24253 -0.08544,-0.44648 -0.253559,-0.61186 -0.1695,-0.1681 -0.380341,-0.25354 -0.6339,-0.25354 -0.253559,0 -0.465776,0.0827 -0.633896,0.24804 -0.165364,0.16535 -0.248048,0.37207 -0.248048,0.61736 z m 0,0"
       style="fill:#000000;fill-opacity:1;fill-rule:nonzero;stroke:none;stroke-width:0.35277775" />
    <path
       inkscape:connector-curvature="0"
       id="path1695"
       d="M -68.941184,87.865793 H -70.53006"
       style="fill:none;stroke:#000000;stroke-width:0.26475194;stroke-linecap:butt;stroke-linejoin:miter;stroke-miterlimit:10;stroke-opacity:0.74901997" />
    <path
       inkscape:connector-curvature="0"
       id="path1697"
       d="m -80.986615,87.56124 c 0,-0.939835 0.15572,-1.650894 0.468535,-2.133212 0.311435,-0.485069 0.763432,-0.727604 1.355989,-0.727604 1.131369,0 1.697743,0.912248 1.697743,2.734028 0,0.901241 -0.159854,1.590252 -0.479559,2.067066 -0.316946,0.474027 -0.763432,0.711059 -1.339451,0.711059 -0.540191,0 -0.959115,-0.22599 -1.256771,-0.678004 -0.297656,-0.451979 -0.446486,-1.109309 -0.446486,-1.973333 z m 0.689021,-0.03316 c 0,1.419401 0.359667,2.127709 1.080382,2.127709 0.705555,0 1.058333,-0.719349 1.058333,-2.160764 0,-1.491051 -0.347267,-2.237952 -1.041799,-2.237952 -0.731738,0 -1.096916,0.757943 -1.096916,2.271007 z m 0,0"
       style="fill:#000000;fill-opacity:1;fill-rule:nonzero;stroke:none;stroke-width:0.35277775" />
    <path
       inkscape:connector-curvature="0"
       id="path1699"
       d="m -76.754658,89.771605 c 0,-0.124037 0.04134,-0.228741 0.126778,-0.314184 0.08819,-0.08407 0.194303,-0.126789 0.319705,-0.126789 0.128157,0 0.234266,0.04272 0.319705,0.126789 0.08406,0.08544 0.126781,0.190147 0.126781,0.314184 0,0.118498 -0.04272,0.220486 -0.126781,0.30868 -0.08544,0.08407 -0.192924,0.126789 -0.325215,0.126789 -0.125402,0 -0.230135,-0.04272 -0.314195,-0.126789 -0.08544,-0.08819 -0.126778,-0.190182 -0.126778,-0.30868 z m 0,0"
       style="fill:#000000;fill-opacity:1;fill-rule:nonzero;stroke:none;stroke-width:0.35277775" />
    <path
       inkscape:connector-curvature="0"
       id="path1701"
       d="m -74.824028,89.402282 c 0.293521,0.169509 0.609095,0.253576 0.94809,0.253576 0.476804,0 0.846116,-0.187431 1.107944,-0.562257 0.264584,-0.377578 0.396875,-0.915 0.396875,-1.609548 -0.0041,0.0042 -0.0083,0.0042 -0.01101,0 -0.235645,0.445134 -0.631141,0.666996 -1.185115,0.666996 -0.445107,0 -0.814419,-0.151588 -1.107941,-0.457517 -0.294901,-0.308681 -0.440972,-0.708307 -0.440972,-1.201667 0,-0.520876 0.159851,-0.949466 0.479556,-1.284323 0.322463,-0.337608 0.740007,-0.507118 1.25126,-0.507118 0.529167,0 0.942576,0.208104 1.240233,0.622865 0.300415,0.416171 0.451996,1.022526 0.451996,1.819028 0,0.985308 -0.192924,1.744592 -0.578774,2.27651 -0.385851,0.529167 -0.920531,0.79375 -1.604039,0.79375 -0.374826,0 -0.691772,-0.06064 -0.94809,-0.181892 z m 0.38585,-2.993073 c 0,0.356905 0.09095,0.63941 0.275608,0.848854 0.183279,0.20948 0.436838,0.314184 0.760677,0.314184 0.282497,0 0.518143,-0.09507 0.705556,-0.286632 0.190172,-0.190147 0.286631,-0.421675 0.286631,-0.694514 0,-0.385868 -0.09646,-0.702803 -0.286631,-0.953593 -0.187413,-0.253577 -0.435459,-0.380365 -0.744139,-0.380365 -0.286632,0 -0.526412,0.110243 -0.71658,0.330729 -0.187413,0.217734 -0.281122,0.490608 -0.281122,0.821337 z m 0,0"
       style="fill:#000000;fill-opacity:1;fill-rule:nonzero;stroke:none;stroke-width:0.35277775" />
    <path
       inkscape:connector-curvature="0"
       id="path1703"
       d="M -68.941184,68.009626 H -70.53006"
       style="fill:none;stroke:#000000;stroke-width:0.26475194;stroke-linecap:butt;stroke-linejoin:miter;stroke-miterlimit:10;stroke-opacity:0.74901997" />
    <path
       inkscape:connector-curvature="0"
       id="path1705"
       d="m -79.338479,70.268251 v -4.564098 c -0.103354,0.107492 -0.281122,0.226025 -0.534681,0.358317 -0.2508,0.12954 -0.482311,0.21911 -0.694531,0.270086 v -0.661458 c 0.278366,-0.07719 0.578777,-0.199813 0.898482,-0.369323 0.32246,-0.172261 0.570509,-0.333481 0.744139,-0.48507 h 0.259073 v 5.451546 z m 0,0"
       style="fill:#000000;fill-opacity:1;fill-rule:nonzero;stroke:none;stroke-width:0.35277775" />
    <path
       inkscape:connector-curvature="0"
       id="path1707"
       d="m -76.754658,69.915473 c 0,-0.124037 0.04134,-0.228776 0.126778,-0.314219 0.08819,-0.08407 0.194303,-0.126788 0.319705,-0.126788 0.128157,0 0.234266,0.04272 0.319705,0.126788 0.08406,0.08544 0.126781,0.190182 0.126781,0.314219 0,0.118498 -0.04272,0.220486 -0.126781,0.308681 -0.08544,0.08403 -0.192924,0.126753 -0.325215,0.126753 -0.125402,0 -0.230135,-0.04272 -0.314195,-0.126753 -0.08544,-0.08819 -0.126778,-0.190183 -0.126778,-0.308681 z m 0,0"
       style="fill:#000000;fill-opacity:1;fill-rule:nonzero;stroke:none;stroke-width:0.35277775" />
    <path
       inkscape:connector-curvature="0"
       id="path1709"
       d="m -75.149243,67.705073 c 0,-0.9398 0.155716,-1.650894 0.468531,-2.133211 0.311439,-0.48507 0.763436,-0.727605 1.355989,-0.727605 1.131369,0 1.697743,0.912284 1.697743,2.734028 0,0.901241 -0.15985,1.590287 -0.479555,2.067066 -0.31695,0.474063 -0.763433,0.711094 -1.339455,0.711094 -0.540191,0 -0.959115,-0.226024 -1.256771,-0.678003 -0.297656,-0.452015 -0.446482,-1.109345 -0.446482,-1.973369 z m 0.689017,-0.03316 c 0,1.419366 0.359667,2.127674 1.080382,2.127674 0.705555,0 1.058333,-0.719314 1.058333,-2.160764 0,-1.491015 -0.347264,-2.237917 -1.041795,-2.237917 -0.731739,0 -1.09692,0.757908 -1.09692,2.271007 z m 0,0"
       style="fill:#000000;fill-opacity:1;fill-rule:nonzero;stroke:none;stroke-width:0.35277775" />
    <path
       inkscape:connector-curvature="0"
       id="path1745"
       d="m -68.941184,158.56602 6.738608,-1.79006 6.739986,2.30547 6.738606,6.87779 6.739986,-16.06243 6.738604,-22.77484 6.738607,-6.79372 6.739985,-21.997638 6.738609,-4.656383 6.739996,-5.74227 6.738583,8.049119 6.73862,2.973811 6.739999,-9.818547 6.73858,1.121728 6.73862,-1.182335 6.74,-9.228737 6.73858,0.114371 6.74,3.52365 6.73858,-5.170417 6.73862,3.508516 6.74,1.938902 6.73858,-3.971537 6.74,-1.985751 -6.74,3.971502 -6.73858,1.985786 -6.74,16.49924 -6.73862,-3.108853 -6.73858,-5.965544 -6.74,9.877777 -6.73858,34.26629 -6.74,-20.3467 -6.73862,25.02792 -6.73858,-25.08994 -6.739999,29.89379 -6.73862,-24.82398 -6.738583,17.57962 -6.739996,7.75973 -6.738609,22.34904 -6.739985,5.00779 -6.738607,-2.8236 -6.738604,5.81808 -6.739986,10.14924 -6.738606,-11.39087 -6.739986,7.0721 -6.738608,-12.11573 z m 0,0"
       style="fill:#ff6363;fill-opacity:0.4;fill-rule:nonzero;stroke:none;stroke-width:0.35277775" />
    <path
       inkscape:connector-curvature="0"
       id="path1747"
       d="m -68.941184,161.40479 6.738608,-8.12906 6.739986,5.84151 6.738606,0.77032 6.739986,1.18925 6.738604,-10.33392 6.738607,-1.18233 6.739985,-11.06428 6.738609,-22.5323 6.739996,-4.15615 6.738583,3.46989 6.73862,2.86219 6.739999,-17.95032 6.73858,11.54106 6.73862,-8.49973 6.74,-18.111572 6.73858,6.106089 6.74,-3.311419 6.73858,-2.124957 6.73862,17.587909 6.74,-7.478603 6.73858,-4.194741 6.74,3.163959 6.73862,0.540208 6.73858,-10.373888 6.74,3.165369 6.738625,9.137755 6.73858,7.010081 6.74,2.84427 6.73862,-2.68442 6.73996,-27.027438 6.73862,-3.646311 v 11.91454 l -6.73862,9.591144 -6.73996,16.656335 -6.73862,6.5829 -6.74,-7.74597 -6.73858,4.36287 -6.738625,-2.11529 -6.74,-1.79832 -6.73858,-6.40239 -6.73862,8.48321 -6.74,-7.75836 -6.73858,7.71839 -6.74,-1.52135 -6.73862,4.08591 -6.73858,5.02429 -6.74,-10.45929 -6.73858,12.45884 -6.74,-3.01929 -6.73862,12.94391 -6.73858,8.36472 -6.739999,13.81894 -6.73862,-6.66831 -6.738583,-10.03212 -6.739996,4.58061 -6.738609,29.88825 -6.739985,-1.53374 -6.738607,9.14326 -6.738604,2.37437 -6.739986,-9.93013 -6.738606,-0.81855 -6.739986,0.28247 -6.738608,-3.36515 z m 0,0"
       style="fill:#2eb8b8;fill-opacity:0.4;fill-rule:nonzero;stroke:none;stroke-width:0.35277775" />
    <path
       inkscape:connector-curvature="0"
       id="path1749"
       d="m -68.941184,163.98172 6.738608,5.16214 6.739986,-2.38263 6.738606,9.13363 6.739986,-13.10514 6.738604,-14.29579 6.738607,-1.98575 6.739985,-13.502 6.738609,-13.50338 6.739996,-6.75104 6.738583,-4.76525 6.73862,13.89891 6.739999,-19.85616 6.73858,13.10513 6.73862,-13.10513 6.74,5.56037 6.73858,-17.076628 6.74,-3.177751 6.73858,0.398251 6.73862,3.308667 6.74,-7.280169 6.73858,-2.979349 6.74,-2.977939"
       style="fill:none;stroke:#ff6363;stroke-width:0.79374999;stroke-linecap:butt;stroke-linejoin:miter;stroke-miterlimit:10;stroke-opacity:1" />
    <path
       inkscape:connector-curvature="0"
       id="path1751"
       d="m -68.941184,165.17235 6.738608,-2.38263 6.739986,2.78088 6.738606,0.79375 6.739986,5.56038 6.738604,-6.35413 6.738607,-5.1635 6.739985,-4.76525 6.738609,-26.2103 6.739996,-4.36838 6.738583,6.75101 6.73862,4.76525 6.739999,-15.88463 6.73858,1.58887 6.73862,-10.72253 6.74,-7.54613 6.73858,-3.17638 6.74,3.57325 6.73858,-3.57325 6.73862,6.751 6.74,-2.97931 6.73858,-5.955878 6.74,5.459798 6.73862,-3.97153 6.73858,-1.985753 6.74,2.483233 6.738625,5.62515 6.73858,1.32429 6.74,5.29442 6.73862,-4.63296 6.73996,-21.841881 6.73862,-6.618746"
       style="fill:none;stroke:#2eb8b8;stroke-width:0.79374999;stroke-linecap:butt;stroke-linejoin:miter;stroke-miterlimit:10;stroke-dasharray:1.58749996, 0.79374998;stroke-opacity:1" />
    <path
       inkscape:connector-curvature="0"
       id="path1753"
       d="m 50.682599,151.84949 h 75.836391 c 1.12493,0 2.03025,1.16441 2.03025,2.61136 v 21.4919 c 0,1.44692 -0.90532,2.61137 -2.03025,2.61137 H 50.682599 c -1.124954,0 -2.030274,-1.16445 -2.030274,-2.61137 v -21.4919 c 0,-1.44695 0.90532,-2.61136 2.030274,-2.61136 z m 0,0"
       style="fill:#ffffff;fill-opacity:0.49189202;fill-rule:evenodd;stroke:#000000;stroke-width:0.23329377;stroke-linecap:round;stroke-linejoin:round;stroke-miterlimit:10;stroke-opacity:1" />
    <path
       inkscape:connector-curvature="0"
       id="path1857"
       d="m 51.489715,160.38918 c 9.16809,0 9.16809,0 9.16809,0"
       style="fill:none;stroke:#ff6363;stroke-width:0.64022642;stroke-linecap:butt;stroke-linejoin:miter;stroke-miterlimit:4;stroke-opacity:1" />
    <path
       inkscape:connector-curvature="0"
       id="path1859"
       d="m 51.489715,170.02443 c 9.16809,0 9.16809,0 9.16809,0"
       style="fill:none;stroke:#2eb8b8;stroke-width:0.64029169;stroke-linecap:butt;stroke-linejoin:miter;stroke-miterlimit:4;stroke-dasharray:1.2805833, 0.64029165;stroke-opacity:1" />
    <path
       inkscape:connector-curvature="0"
       id="path1861"
       d="m 149.91333,193.51445 c 0.36654,0.28388 0.77996,0.42446 1.24023,0.42446 0.36657,0 0.65733,-0.0896 0.87093,-0.27012 0.21633,-0.17914 0.32519,-0.42168 0.32519,-0.7276 0,-0.67247 -0.48369,-1.0087 -1.44967,-1.0087 h -0.44651 v -0.56226 h 0.42447 c 0.85573,0 1.28432,-0.31556 1.28432,-0.94809 0,-0.58706 -0.32798,-0.88194 -0.98118,-0.88194 -0.37483,0 -0.72761,0.12678 -1.05834,0.38033 v -0.63387 c 0.34865,-0.20123 0.75657,-0.30318 1.22372,-0.30318 0.45473,0 0.8213,0.11987 1.09693,0.35828 0.27559,0.23565 0.41338,0.54296 0.41338,0.92054 0,0.69864 -0.3569,1.14653 -1.06934,1.34496 v 0.0166 c 0.38584,0.0413 0.69039,0.17639 0.915,0.40788 0.22324,0.23153 0.33627,0.52092 0.33627,0.8654 0,0.4782 -0.17364,0.86403 -0.51816,1.15757 -0.3459,0.29489 -0.80754,0.44098 -1.38356,0.44098 -0.50437,0 -0.91225,-0.0937 -1.22368,-0.28113 z m 0,0"
       style="fill:#000000;fill-opacity:1;fill-rule:nonzero;stroke:none;stroke-width:0.35277775" />
    <path
       inkscape:connector-curvature="0"
       id="path1863"
       d="m 157.19212,192.75929 c 0,0.52229 -0.17363,0.94259 -0.51816,1.26228 -0.34586,0.31972 -0.81026,0.47956 -1.39456,0.47956 -0.50024,0 -0.87366,-0.0758 -1.11898,-0.22599 v -0.68901 c 0.35969,0.23562 0.72761,0.35278 1.10243,0.35278 0.3707,0 0.66975,-0.10199 0.89849,-0.30868 0.22737,-0.20535 0.34177,-0.47681 0.34177,-0.8158 0,-0.34177 -0.11991,-0.60635 -0.35831,-0.79375 -0.23562,-0.19018 -0.57048,-0.28663 -1.0032,-0.28663 -0.33485,0 -0.63666,0.0152 -0.90399,0.0441 l 0.19293,-2.70648 h 2.497 v 0.58981 h -1.92927 l -0.11024,1.51582 0.48506,-0.0219 c 0.56501,0 1.01011,0.14196 1.33396,0.42446 0.32248,0.27972 0.48507,0.67246 0.48507,1.17958 z m 0,0"
       style="fill:#000000;fill-opacity:1;fill-rule:nonzero;stroke:none;stroke-width:0.35277775" />
    <text
       xml:space="preserve"
       style="font-style:normal;font-variant:normal;font-weight:normal;font-stretch:normal;font-size:4.23333311px;line-height:1.25;font-family:'宋体';-inkscape-font-specification:'宋体';text-align:center;letter-spacing:0px;word-spacing:0px;writing-mode:lr-tb;text-anchor:middle;fill:#000000;fill-opacity:1;stroke:none;stroke-width:0.26458332"
       x="90.069832"
       y="162.29077"
       id="text8835"><tspan
         sodipodi:role="line"
         id="tspan8833"
         x="90.069832"
         y="162.29077"
         style="font-size:4.93888903px;stroke-width:0.26458332">使用知识模型迁移的<tspan
   style="-inkscape-font-specification:'Times New Roman, ';font-family:'Times New Roman';font-weight:normal;font-style:normal;font-stretch:normal;font-variant:normal"
   id="tspan8855">NLM</tspan></tspan></text>
    <text
       xml:space="preserve"
       style="font-style:normal;font-variant:normal;font-weight:normal;font-stretch:normal;font-size:4.23333311px;line-height:1.25;font-family:'宋体';-inkscape-font-specification:'宋体';text-align:center;letter-spacing:0px;word-spacing:0px;writing-mode:lr-tb;text-anchor:middle;fill:#000000;fill-opacity:1;stroke:none;stroke-width:0.26458332"
       x="92.4814"
       y="171.59558"
       id="text8835-3"><tspan
         sodipodi:role="line"
         id="tspan8833-5"
         x="92.4814"
         y="171.59558"
         style="font-size:4.93888903px;stroke-width:0.26458332">未使用知识模型迁移的<tspan
   style="font-style:normal;font-variant:normal;font-weight:normal;font-stretch:normal;font-family:'Times New Roman';-inkscape-font-specification:'Times New Roman, '"
   id="tspan8857">NLM</tspan></tspan></text>
    <text
       xml:space="preserve"
       style="font-style:normal;font-variant:normal;font-weight:normal;font-stretch:normal;font-size:4.23333311px;line-height:1.25;font-family:'宋体';-inkscape-font-specification:'宋体';text-align:center;letter-spacing:0px;word-spacing:0px;writing-mode:lr-tb;text-anchor:middle;fill:#000000;fill-opacity:1;stroke:none;stroke-width:0.26458332"
       x="42.358837"
       y="204.8309"
       id="text8872"><tspan
         sodipodi:role="line"
         id="tspan8870"
         x="42.358837"
         y="204.8309"
         style="font-size:5.64444447px;stroke-width:0.26458332">迭代轮数</tspan></text>
    <text
       xml:space="preserve"
       style="font-style:normal;font-variant:normal;font-weight:normal;font-stretch:normal;font-size:4.23333311px;line-height:1.25;font-family:'宋体';-inkscape-font-specification:'宋体';text-align:center;letter-spacing:0px;word-spacing:0px;writing-mode:tb-rl;text-anchor:middle;fill:#000000;fill-opacity:1;stroke:none;stroke-width:0.26458332"
       x="-90.09269"
       y="127.33487"
       id="text8872-6"><tspan
         sodipodi:role="line"
         id="tspan8870-2"
         x="150.96115"
         y="-113.71897"
         style="font-size:5.64444447px;writing-mode:tb-rl;stroke-width:0.26458332">训练精度</tspan></text>
  </g>
</svg>
